<mxfile host="65bd71144e">
    <diagram id="4JlWQ0ioRy2PIk0LrmEi" name="ページ1">
        <mxGraphModel dx="830" dy="584" grid="1" gridSize="10" guides="1" tooltips="1" connect="1" arrows="1" fold="1" page="1" pageScale="1" pageWidth="827" pageHeight="1169" background="#ffffff" math="0" shadow="0">
            <root>
                <mxCell id="0"/>
                <mxCell id="1" parent="0"/>
                <mxCell id="8" value="AWS Cloud" style="points=[[0,0],[0.25,0],[0.5,0],[0.75,0],[1,0],[1,0.25],[1,0.5],[1,0.75],[1,1],[0.75,1],[0.5,1],[0.25,1],[0,1],[0,0.75],[0,0.5],[0,0.25]];outlineConnect=0;gradientColor=none;html=1;whiteSpace=wrap;fontSize=12;fontStyle=0;shape=mxgraph.aws4.group;grIcon=mxgraph.aws4.group_aws_cloud_alt;strokeColor=#232F3E;fillColor=none;verticalAlign=top;align=left;spacingLeft=30;fontColor=#232F3E;dashed=0;strokeWidth=1;" parent="1" vertex="1">
                    <mxGeometry x="110" y="160" width="620" height="390" as="geometry"/>
                </mxCell>
                <mxCell id="12" value="VPC" style="points=[[0,0],[0.25,0],[0.5,0],[0.75,0],[1,0],[1,0.25],[1,0.5],[1,0.75],[1,1],[0.75,1],[0.5,1],[0.25,1],[0,1],[0,0.75],[0,0.5],[0,0.25]];outlineConnect=0;gradientColor=none;html=1;whiteSpace=wrap;fontSize=12;fontStyle=0;shape=mxgraph.aws4.group;grIcon=mxgraph.aws4.group_vpc;strokeColor=#248814;fillColor=none;verticalAlign=top;align=left;spacingLeft=30;fontColor=#AAB7B8;dashed=0;" parent="1" vertex="1">
                    <mxGeometry x="130" y="200" width="580" height="330" as="geometry"/>
                </mxCell>
                <mxCell id="10" value="Public subnet" style="points=[[0,0],[0.25,0],[0.5,0],[0.75,0],[1,0],[1,0.25],[1,0.5],[1,0.75],[1,1],[0.75,1],[0.5,1],[0.25,1],[0,1],[0,0.75],[0,0.5],[0,0.25]];outlineConnect=0;gradientColor=none;html=1;whiteSpace=wrap;fontSize=12;fontStyle=0;shape=mxgraph.aws4.group;grIcon=mxgraph.aws4.group_security_group;grStroke=0;strokeColor=#248814;fillColor=#E9F3E6;verticalAlign=top;align=left;spacingLeft=30;fontColor=#248814;dashed=0;" parent="1" vertex="1">
                    <mxGeometry x="140" y="240" width="310" height="280" as="geometry"/>
                </mxCell>
                <mxCell id="23" value="EC2 instance contents" style="points=[[0,0],[0.25,0],[0.5,0],[0.75,0],[1,0],[1,0.25],[1,0.5],[1,0.75],[1,1],[0.75,1],[0.5,1],[0.25,1],[0,1],[0,0.75],[0,0.5],[0,0.25]];outlineConnect=0;gradientColor=none;html=1;whiteSpace=wrap;fontSize=12;fontStyle=0;shape=mxgraph.aws4.group;grIcon=mxgraph.aws4.group_ec2_instance_contents;strokeColor=#D86613;fillColor=none;verticalAlign=top;align=left;spacingLeft=30;fontColor=#D86613;dashed=0;" parent="1" vertex="1">
                    <mxGeometry x="150" y="270" width="290" height="230" as="geometry"/>
                </mxCell>
                <mxCell id="25" value="&lt;font color=&quot;#000000&quot;&gt;35.73.146.29&lt;/font&gt;" style="text;html=1;strokeColor=none;fillColor=none;align=center;verticalAlign=middle;whiteSpace=wrap;rounded=0;" parent="1" vertex="1">
                    <mxGeometry x="358" y="270" width="82" height="30" as="geometry"/>
                </mxCell>
                <mxCell id="39" value="" style="rounded=0;whiteSpace=wrap;html=1;fillColor=none;strokeColor=#000000;" vertex="1" parent="1">
                    <mxGeometry x="173.62" y="315" width="92" height="135" as="geometry"/>
                </mxCell>
                <mxCell id="40" value="" style="rounded=0;whiteSpace=wrap;html=1;fillColor=none;strokeColor=#000000;" vertex="1" parent="1">
                    <mxGeometry x="319.5" y="315" width="92" height="135" as="geometry"/>
                </mxCell>
                <mxCell id="20" value="subnet group" style="fillColor=none;strokeColor=#5A6C86;dashed=1;verticalAlign=top;fontStyle=0;fontColor=#5A6C86;" parent="1" vertex="1">
                    <mxGeometry x="530" y="240" width="170" height="280" as="geometry"/>
                </mxCell>
                <mxCell id="9" value="Private subnet" style="points=[[0,0],[0.25,0],[0.5,0],[0.75,0],[1,0],[1,0.25],[1,0.5],[1,0.75],[1,1],[0.75,1],[0.5,1],[0.25,1],[0,1],[0,0.75],[0,0.5],[0,0.25]];outlineConnect=0;gradientColor=none;html=1;whiteSpace=wrap;fontSize=12;fontStyle=0;shape=mxgraph.aws4.group;grIcon=mxgraph.aws4.group_security_group;grStroke=0;strokeColor=#147EBA;fillColor=#E6F2F8;verticalAlign=top;align=left;spacingLeft=30;fontColor=#147EBA;dashed=0;" parent="1" vertex="1">
                    <mxGeometry x="550" y="280" width="130" height="110" as="geometry"/>
                </mxCell>
                <mxCell id="3" value="" style="outlineConnect=0;fontColor=#232F3E;gradientColor=none;fillColor=#000000;strokeColor=none;dashed=0;verticalLabelPosition=bottom;verticalAlign=top;align=center;html=1;fontSize=12;fontStyle=0;aspect=fixed;pointerEvents=1;shape=mxgraph.aws4.user;" parent="1" vertex="1">
                    <mxGeometry x="577.5" y="80" width="65" height="65" as="geometry"/>
                </mxCell>
                <mxCell id="4" value="" style="shape=image;verticalLabelPosition=bottom;labelBackgroundColor=#ffffff;verticalAlign=top;aspect=fixed;imageAspect=0;image=data:image/png,iVBORw0KGgoAAAANSUhEUgAAAlkAAAGvCAYAAABo28DeAAAAGXRFWHRTb2Z0d2FyZQBBZG9iZSBJbWFnZVJlYWR5ccllPAAAA/NpVFh0WE1MOmNvbS5hZG9iZS54bXAAAAAAADw/eHBhY2tldCBiZWdpbj0i77u/IiBpZD0iVzVNME1wQ2VoaUh6cmVTek5UY3prYzlkIj8+IDx4OnhtcG1ldGEgeG1sbnM6eD0iYWRvYmU6bnM6bWV0YS8iIHg6eG1wdGs9IkFkb2JlIFhNUCBDb3JlIDUuNi1jMTQ1IDc5LjE2MzQ5OSwgMjAxOC8wOC8xMy0xNjo0MDoyMiAgICAgICAgIj4gPHJkZjpSREYgeG1sbnM6cmRmPSJodHRwOi8vd3d3LnczLm9yZy8xOTk5LzAyLzIyLXJkZi1zeW50YXgtbnMjIj4gPHJkZjpEZXNjcmlwdGlvbiByZGY6YWJvdXQ9IiIgeG1sbnM6eG1wTU09Imh0dHA6Ly9ucy5hZG9iZS5jb20veGFwLzEuMC9tbS8iIHhtbG5zOnN0UmVmPSJodHRwOi8vbnMuYWRvYmUuY29tL3hhcC8xLjAvc1R5cGUvUmVzb3VyY2VSZWYjIiB4bWxuczp4bXA9Imh0dHA6Ly9ucy5hZG9iZS5jb20veGFwLzEuMC8iIHhtbG5zOmRjPSJodHRwOi8vcHVybC5vcmcvZGMvZWxlbWVudHMvMS4xLyIgeG1wTU06T3JpZ2luYWxEb2N1bWVudElEPSJ1dWlkOjVEMjA4OTI0OTNCRkRCMTE5MTRBODU5MEQzMTUwOEM4IiB4bXBNTTpEb2N1bWVudElEPSJ4bXAuZGlkOjdDNkU3MUQ5QTUwQzExRTk5RTBCOTFCODRDOUI5NjRDIiB4bXBNTTpJbnN0YW5jZUlEPSJ4bXAuaWlkOjdDNkU3MUQ4QTUwQzExRTk5RTBCOTFCODRDOUI5NjRDIiB4bXA6Q3JlYXRvclRvb2w9IkFkb2JlIElsbHVzdHJhdG9yIENDIDIwMTcgKE1hY2ludG9zaCkiPiA8eG1wTU06RGVyaXZlZEZyb20gc3RSZWY6aW5zdGFuY2VJRD0idXVpZDplZGRmZjc1ZS0zZjE4LWM5NGUtOThkNC1kMzJmOTc3ZGM0YzgiIHN0UmVmOmRvY3VtZW50SUQ9InhtcC5kaWQ6MzY3ZGQwMjUtY2JhYS00MTFiLWE1NDktYTFkZDBjNzAwZThlIi8+IDxkYzp0aXRsZT4gPHJkZjpBbHQ+IDxyZGY6bGkgeG1sOmxhbmc9IngtZGVmYXVsdCI+bW9ieTwvcmRmOmxpPiA8L3JkZjpBbHQ+IDwvZGM6dGl0bGU+IDwvcmRmOkRlc2NyaXB0aW9uPiA8L3JkZjpSREY+IDwveDp4bXBtZXRhPiA8P3hwYWNrZXQgZW5kPSJyIj8+g6whIAAAVJJJREFUeNrs3QecHWW9//HfnLO9J7vJbnpPNo2EFroUuQKKIhoVC8S/XSzX3rj2a694bVfFa7DLqiiIFUVQaiCQhLAJ6XU32d7bOef/e+acQAhJdubUOTOf9+v1OHE5M3v2mTkz3/PMM89jCQA41Lh67SRdvELLpVpWapmhJRSwaoho2aPlES1/0XJLc9OaTo4OAMeyqAIADsJVvS4+qeV1WgqpkWcY0vJdLZ8ibAEgZAFwE7BW6+IHWqqpjZM6pOU6DVp/pioAGCGqAMBJAtaHdHELAcuRyVru0Dp7M1UBwKAlC8CJAtY7dXEjNZGU1zQ3rfkp1QAQsgDg2IB1ri7u1hKmNpJi+mmdoUHrcaoCCC5uFwI4NmAV6OJ7BKyUlEi8MzwAQhYAPOWVWpZSDSk7XwPr5VQDQMgCgCPeShWkzfVUARBc9MkC8JTG1WsbdHGQmkibUS01zU1rBqgKIHhoyQJwtPOogrQyA7eeSTUAwVRAFQA4ysKk1rIsidXWa5kkseJi/9RGTP+04SGx2lu1HE52K4u0/JNDCyBkAQi2Wtc5pLRMostOl1ilP8crjZn/mT5brK4OCW96WGRk2O0mJnBYAcHE7UIAyX/xKiqWyKnn+DZgPSNs1UyUyGnniIRdfzct5bACCFkA4Ep07iKRkuBkiFhZhURnz2fHAyBkAcjk2SMs0fppwQuWU2bYfdAAgJAFICNMXywJB3BQ+KJikcIiDgAAhCwAmQobwQ0asaJi9j8AQhYAAAAhCwAAgJAFAAAAQhYAAEAWMeI7gOyIRsXqbLOXtnBYYhPq3A2H4JVtAAAhC4BXmClprLbWZ/wsNmW6RBavzPk2zNhX0cUr2EkA0orbhQCywurrefYPe3s8sQ2rt5sdBICQBQAAQMgCAAAgZAEAAICQBQAAQMgCAAAgZAEAAICQBQAAQMgCAAAgZAEAAICQBQAAQMgCAAAgZAEAAICQBQAAQMgCAAAgZAEAAICQBQAAQMgCAAAgZAEAAICQBQAAQMgCAAAgZAEAAICQBQAAQMgCAAAgZAEAAICQBQAAQMgCAAAgZAEAAICQBQAAQMgCAAAgZAEAABCyACCTYkXFz/5hcXFebgMAnCigCgBkQ3TZaWK17NeUE0t8xQtJtGF6Xm4DAAhZADwjVlImsdkLfLENAHCC24UAAACELAAAAEIWAAAAIQsAAACELAC5Njoa2D/dGh1h/wMgZAHIUNAY7BeJRoP3h49puBwZ5gAAQMgCkCGRiFiHDwbvpHn0GFsAQMgCkAnh7c0iQbp1NjQooZ1b2fEACFkAMh86wuvvF2twwPd/qtXfa/+tQn8sAA4x4nvANK5eW6WLidQETqDKdfjo65HwA3fZU9PEaieLFJfYU9X4gulzZlqv2lufORUPABCyoKGqQhcv03KVlnO1TKJWkIkwEjqwR8QUAAAhy+fhqlgX79XyPi0TqBEAAAhZSD1gLdLFLVqWUxsAABCykJ6AdZYu/ii0XgEAkFM8XeivgLWIgAUAACEL6Q1YRRK/RUjAAgCAkIU0eo/QBwsAAEIW0qdx9dpyiT9FCAAACFlIIzMOVi3VAAAAIQvp9SKqAAAAQhbS7xyqAAAAb2GcrDyX6I/VkMy6seqJEpsyXWIVlRq3w/6plLExsXq6xDqwR6yBvpQ3Fystl9i0mRKrmqCfGB99ZKJRe9Jj6+A+sbraU9tWOCzRKTPicxcWFYtYlj/qyMxVODwkVlurhFr2xecyBABCVmC4H7IhFJLoouX2RdGvYjUTRWbMkdCOZgnt3p58DtFtROcv8U9oOLaeqmpE9DiwNECEmzckFSJildUSWX6GSEmpPw8m/ftidfUSmzlPQhsf0mDaJwDg6HJLFQQvKEcXLvN1wHqKBqPovMUSnTY7uYCldRRdsNS3AesZQalhukQaT3G/XkmZRFae7d+AdfTfWlYe/1tNSx0AELLwrAtFVY1Ep84M1N8cnd8oUljkMroWaMBaEqxjQ4NWrMbdQ6rReaZuC4NTScUlEp2zgBMJAEIWjnMhnTI9eH90WAPTJHfd1sztISkoDN7x0TDNVb3GJjUEro6i9dMC0boJ9xpXr63X8hMtC6kNELKCGLLKK4P5h5dVUE9O/u4K5393rLTM7t8XOCZ8c8sQx3eTlldr2aRB68taqqkSQhaCdoEIYnhwe7vQT09bZurvLiwM7MfI9fEE39NA9WZdvODIp0PLe7U8aX6uhWstIQsAACQRsObr4ivH+U+TtHxXyyP6mouoKUIWAABwHrBM8++PtZSf5GUrtPxDX9ukZQ61RsgCAADj+4iWsx2+9qVantCg9TEtdOwjZAEAgOPRoHS6Lj7mcjUTrj6pZYOufx616G+M+I6TstoPiTXQ/9T/j1VPiI8SnofbyGg99XaL1d2hbyzx/krL4sNA5OE2MmZ0REKHDj49qryZimfyVHdTFXllGyBgrV5rRuD9aQrXUTPMw926na/q8r+am9YMU6uELAQpYLW1SHjDumN+aEnk7Ivjj+/n0TYyanhIwg//+1lT0kSWniqx+mm538ay0yU2eUrOqym86WGxOtufFZ7tKXmyuY2NDz9rrka32wDU57QsSnEb5m7S+7RcqmHrFRq0tlKt/sLtQpw43AwOPvuHZsLcocG820ZG68m0sB1nzr+jW95yuo3+Xo8cTwPP/uHxfpbpbQylvg0EmwaiVbp4Rxo3uVLiTyBeR+0SsgAACGrAMmNg3ZSB66d5OnGtbv9bWhiIjZAFAEDgmEFGl2Vw+9dr+acGrSlUNSELAIBASASfG7Lwq8yQEOv0951KrROyAAAIgs9rqcjS75qq5R4NWldS7YQsAAB8S8POmbpw1TE9Vjsp1UnUTT+t3+nvfid7gJAFAIBffd5VwKqqkcgpqySy6jkSq56Y6nX6Rg1an2QXELIAAPAVDTiX6uISxytYlkQbV9jLWFmFRE47R6LzFqfaqmWm4vmGFos9QsgCAMAPAcuEms+5WSc6fY7EKiqfGbpmzZPI6eelOoCyGZvrR4lJqUHIAgAgr12txfl0AEXFEp2z8Lj/KVZZLZEzn5PqDAymX9jNBC1CFgAAeSvRivVRN+tE5y46+TyY+t/MVFfReY12C1eSXkXQImQBAJDPLpP4lDeOxMorJDplhrMwNmu+RE45U0NXYSpB63v00SJkAQCQjz7i5sXRue5ap2K1k+1+WlJSmuz7e52Wr7GbCFkAAOSNxtVrNf3IBY4DU1WNxCY1uP49pvVrzHSIr6hK9q3+p77XD7DHCFkAAOQLl61Yi5L/TcUlEjntXIlNnJTsFr6gQetadhkhCwAAT9PAslgXz3f6ersVK/mAFGc6xK9YJbG6+mS3cJO+7wvYe4QsAAC87B1uXhydPT89v9WyJLL8DIk1TEtmbdOD/rcatOax+whZAAB4joaUanExR2GsvFJidQ3pewMmaC1emWzQqpX4XIcV7ElCFgAAXvMaiU/M7IgZyT3tjgStSUkNWrpU4qPCM7QDIQsAAE95o+NXFpdIrH5aZt6FCVrLTku2r9dLtbyHXUnIAgDAExpXr12lixVOXx+dOjOVUdudBa1TzrA71ifh8/r3nMNeJWQBAOAF/89NAIpOm5WFq3Q4/tRhabnbNc3cPj/XoFXDbiVkAQCQMxpGinVxjdPX2wOPFhVn580VFklUg5YUup6Cx6TAb7F3CVkAAOTSlVoct/pEp83O6puLlZVLZNkZydyefJUGyGvYvYQsAABy5VXOA0+FxCbUZv0Nmt8ZXbA0mVW/pUGrgV1MyAIAIKsS40o5H+F9yvScvdfo9NnJjKE1Ucs32dOELAAAss3cKixx9ErT4b1hek7fbGTRKfYgqC69VMPkS9jVhCwAALJptdMXxmpq7fGxciocluiy0+wnD126UYNWObubkAUAQMZp6CjSxfMch6zJUzzxvk1LVnTBErermSa4T7DXCVkAAGTDBVqc3Xsztwo9ErIMM05XrHay29XepcGykd1OyAIAINOudPpC+1ZhYZGn3nyk8RSRAlfjZ5lBSr/IbidkIcdipWXH/SYnJaUutlF6/G2UZncbGa2nsnL9JD37o+SmY6pXtpH146msPC+3AV+53PGxU1fvvXdfXCIR98M6vLBx9doL2fWZV0AV4GQnlMjKs8Tq73sq2MSqJxz/InXCbTQcfxsl2d1Gxk9yZ5wvVleHvtnYU4HHVTO+V7aRyW/cy06X0OEW/UckcfYpcH3rxSvbgD9o0JhqFnkdsiQ+pESsZa9Yne1uVvuK/v1nNjetiXEkELKQqw/vxEnJzgLvuW1ktJ4qquzih21kjJkaxEyo64dtwC8ucfzZMgOQlpZ59g+JLlwu4Yfu1n9Ena5yupartNzKYZA53C4EAATVRY5DVu0kT/8hsfIKic6Y63a1jzeuXmtxGBCyAABIt+c4DjE5mEbHrejs+W4nrV6p5YUcBoQsAADSpnH1WjPVzAJHLzb9QGvqvP9HhQskOmeh27U+wNFAyAJSoqdIKgHA0VY5faHdz7EgP7owm/6Gpv+YC+dp4Dybw4GQhXQYGeHvdiIyFsx6cvN3B/VYMqF9ZJhzSf47y3HIqp6QRwenlUxr1vs5HAhZSMfnr687oH93j7vX9wa0nnqd15M12P/0MAiBCuwasEaDGzB9xHlLVj6FLPN+66e6HR/vqsbVa6dxSBCykOpF9OC+p8ZQCtJF0WprdVdP7YdEhoeCd3wc2OP8xdGohFr2Be+kaeooxu1nH1ju+JVVE/Luj7M7wTtnZpp+I4cEIQupXkT7eyW0e1ug/ubwlo3ub/9pgAg3bwjUxdQcF25b/EI7tog1NBCwz892TiR5rnH1WjOY3AxHLy4o9PT4WCcSmzzV1ewcJmRpvTB2JiELKe90vTCGdjT7P0CMjUp408NimdG9k7mgth+S8MaH/X9rSI+D0M6tEtre7H5drZvwI/eJ1dPl/4DV2Sbh9fcHt7+evyxx/PGoqMzTA9aS6PQ5btYwo98/j0MjvXyTWjWBm8cpZmsxg5kEaXC1hqSC1q5tEmrZL1H73r15cibsn4vh6KiIXvRDrQfsoJXSttpapOC+9vi0K2Yqn8JC/xw5kYhYfb1iHTog1mAKrVFDgxJe9y97+h4zYGOsuCQ+t6QfRGNiDQ/at5tdTllytNl6froogNeXXi27m5vWtHnwvTme7M8+P+br4Tttpv0FysUXg9douYNolMbrUZ4Hq3m6eL2WF7n50AAAsma/lj9r+ZEGrns8cu34ojh8oi66aLmGlVl5W/mh5g3xfoTODGqZrPupj8M2PfKyJUs/IGY2V/MhebUEq9UKAPKNeWrtdaboufs+Xb5TL+LrcvyeZjt9oZlkPZ/FzDydzkOW6cR1tZYfc9imKeTmYcC6QhebJN6sScACgPxxjpYH9Dz+kRzPmed8hvCSsryu8FhVjdtJ41/MYRrQkKUfStNydbuWiew6AMjb685ntHw3h0FrtqNXmel03D2h582g1eBqCKzLdL+UcJgGLGTpTr9MFzcLT0QCgB+8Sct/5+BaYmZQrncUTkzA8sFDHFEznINz5v7opRyeAQpZ+qEwH4ifErAAwFfMbcNsX9BrHb+yqNgftaxhMVbj6gbQFRyaAQpZ6nOuPhgAgHzxv1keBNN52igs8k0lxya5Gu2HlqyghCz98JnR1K5jVwGAL83V8qos/r46x8HELy1Z5m+prXfz8oV67Z3OoRmAkKVeK/F5lQAA/vSGLP4u53dF/NSSVVbudnqg53JYBiNkvYDdBAC+dl7j6rXZemrc+Tw5YX99vzezMrhwLoelz0OWfujM14hT2U0A4Ptr0Wmeu+6F/TVfcmyCq67NZ3FYps7rR9CcpIKgmRizYbo9NkisXL+0hHw0L9/IsEhPp4T27hSrtzu1D1z91Hg9mYHqfHQyscyEzmbuwv27xOrqSP3EVD1RotNniVSZuQv9c/vAzGdm9fdKqGWfWGaex1QmDC8qluiMuUfNXeiTB4FjUbGG4nMXhvbtFBlNbS5Mu55maj1N9HE96bkpyTlDF2j5WxberfOROUP+eqDdnMtcWNa4em15c9OafqKSf0OW+1Hg9CIYWbHKHuXWj2IFusvKyiWi4chM/GlP/ul6rxdIZNnp9onet3VUWiYRDZGhfbsktHVT0tuKzl9iXxT9+ekvsC/0ET0OrCkzJbzxIb04jrmvb13fHE9me748nvScEqus1qA9W8IbHhKruzO57dRO1no6zXetI8+qp2mz4vWkX3RcqvTc3xTyWXdgDfmmb5Y14Cg3mT/etC7eI0iav2K6ZUnklDN9G7CeFQDmLExq4tLIkpW+DVjPqiO9MJp6SmrdWfP8G7COvZhMqJXI0tPdr1deqZ+5M3wbsI77BS6JaVZMa3Fk+em+DVjHXsgjK86yx2ZyKVvz1wR7OraqCW5evZSYlOJ3WV9dKOqnSqx6QqB2YHReo4Ra9tu3fpy2OsTqGoJVR7Pmx2ehHx5ydUFNNpzl7efH3OqrnSxW+yHndTt/sa9ux49/xiyU6NxFEt683t0xGLR6Kiy0Pz+hJx7z5KHuPI3FJOa3z3lltVgt+5y+fJmTFzWuXmsabMwYETO0mOHlTeevCUeVmsTSJO+SRDHM6PKFR+2XI31gzAWtT4s5aXceUw5rOaDFzHq9p7lpzSAhK1sXU3dTB/jmpG8ujtahg84+YJOnBK+OQiGJarA0fbQcH0t19cG6KB75u+unSdhpyDLHXkBaRJ/xGTKDOpq+OtGo48ARxHqKTpoioeYNqfX1y7Ukbp97/vh1N1n0sqOClJkAcX6iLJL4+GbTE8V8c8/JCVPfV0cicD2hpVnL5sRyiwaw0VzXt7/arssqJIhipeWO279jAa0j04+NYym99WSPuWMF8M5LOCyxohKxhgYc1lNAjyVzC9kM5ummBTk7uiTAXIasszTErE8EK68eyBMTZeUxPx/R9/6oLtdpeUDLgxq6mglZqRw8oYBObejm7w5C35njHRsFhZmrU46lYAYIx6EsuFOuxqxQfneAikT8t1MKC+Ph1zypPr6S44SXfGEeBV+VKNebH2joatXFP7TcaYqGrp2ELAAA0sf5uC5jI/4Mv6Vl8eGAgsf0G7smUUzoMrcWf6flNi33a+hK+73tEJ83AECAtDt9oTXiz5AlJWUcBXFLtHxYy71admvo+oKWFen8BbRkAQCCxHlL1qiPW7I4Do5lnoz8gCkatMxjsd/R8rPmpjW9qWyUliwAQJA4bskSv95SKy7hKDg505r1XS0HNHD9j5Y5yW4ouC1Z0aiE9u8WOfKEkGXZYwTFJtTl3zYy9nUnFh9faqAv8QN9bzUT44+w59s2MsyMLWV1tj39uHpZhUSnznT19J1XtpGxOhrsF+vg3qc7E4cL4oPpujjhe2UbGa2nAX1/LUe9PzM2l3l/prNynm3Do/QDIubR/sLxj5UB8SNfTQ+WWeaJyrdreasGrSZdfqq5ac1mQpYDZsyk0JPH1NXenTJ23qWOTyJe2UbGTvaHDkhoy8Zj3tsOiZx1YXxOyFS2cfZFjoeTSMc2MhseBiT82IPH2bkhiU6ZkVfbyOhn7vH1z5pqxertio8OnmfbyGg9bXpYrL6eY95ftz2bRb5tw4v0IhnVC6YZV2neuC82czCasbL89iQtIcstMwbYK7S8XI+dn+vyBj2Odjn6HAW2yoYGj9ti4uqJC69sI1Ph4USdPl10Bj3hNoaHs7qNrB9LJ/u5l7eR0eNpOOV96JVtZLSejjf+lst96JVteNgux/Uw6MP5kYs8ELLMFFNmaJ1ji7eHzzG3BF5lsrqGrc9oGbf5m47vAICgcRyyxISsympf/fGxdM6hqaHIns+zuFjDW4n+W3NHYbHETJArTBQzGb35nXYJO+u+YFoQoxGxTGvi6Kj9EIL9BcmU4SH9EjBodyGxl9mfVcDcZvqIxFu23tLctOZOQhYAAHFPOn2h1dsjMb9N2ea2tcgEKdM1o7zCXtqzPWgxs41krFuLfYtWw9lR2z9ulDJ3fkwQNn0ITegyt7h7uuw+hVlgRsL/mwatr+nyQxq2RghZAICg2+g8ZHX7768/ybysdqtUZZU9/Y6ZTFrKK/Vnpd6dQss8LGYCoAl/9lijCWOjdt9Lu3S2i9Xd4Xy+UffereVsDVsv0aDVQsgCAATZhkCHrCN5qahYYlU1WiZIrLomHqrcTkHmVYkJ7O3J2WcvsJ+Stbo0bLUf1tKaiSdHz9HycCJoPfBUnuWzBgAIEr0I7hOnE0WbAUn90+E/LlwgkXMukbHz/8N+WjQ6e3582CC/BKzj/s1he3ik6MKl9t8eOfMCic6aL2Ja6dLH3Fe+W4PW65/KenzcAAAB9IiWS5y80LSAxBqm++qPt/tVBZhptTMlOq/R3r9mvErrcEs6bimaRzd/oEHrdF2+i5AFAAiiex2HrE7/hSwcFbhqaiWixbRamrAV2rszHVMqvVXLUkIWACCI/u30haGOwxKlvvyvsEiisxdIdMZce5aR0O5tqU6tFKJPFgAgiExLlrPsZMZlGuinxoIiHNagNUfGzrlEonMWnvRpzHH8gpAFAAic5qY1Zs4g508ZtrVSaUEMWxqy7KnkJrqeT9gE+FsIWQCAoPqT45B16CC1FVDmIYHIyrPtscNcuEuD/CFCFgAgqP7gOGT1dPpvKAc4ZsbVOnbC9HH8zPwPIQsAEFT3idPxsswFk9as4Ias/bvdvHxMy28JWQCAwGpuWhMRV7cMD1BpQTQ2ag/t4MJf9djqIGQBAILul45DlpkHz4/T7OCk7HGzImNuVvnJU+tSfQCAAPujFsedbVzeNkK+MwOUmpDlXLuW3xCyAACB19y0xow2+Wunrw+17nfbqoE8Ftr1pH270IWb9JgaImQBABD3c8evjEQkdHAfNRYA5olCl32xTBr7xjNCGtUIAAi4O7XscPri0J7tIrEYteZzoSc3u50w+ubmpjX7CVkAACTohdFcSf/X8QpDgxJqoTXLz6zDLWK1tbhZxTyp+vlnBTWqEgAA+ZHEb/c4uwjv2kZrll+NjUl46ya3a/2fhvVthCwAAI5hpkDRxa8ch6zBfrFa91NxPhTa/oQ9KbgL5sUfP+62qE4AAGxfdHUx3rmV1iyfsToOu+3sbtyoIf0AIQsAgBPQC+UGiY+b5eyCbJ4+27eLivOL0VEJP/GY27VMuPrsCYM4tQoAwFM+7+bFoV1b7QErkf/Cm9e7vU1ovEvDeQ8hCwCAcegF825d3O14hdFRCW1vpuLyXGj3NrHaD7ld7S96vNxy0u1StQAAPMNHXF2gD+4Vq6eTWstTVvthCe3Y4nY1M1PA28Y9NqheAACe1ty05t+6uM3xCrGYhJ7Y4HbgSnghYA30SfjxR5J5gOGG4w3ZQMgCAGB8pjXL8ZXX6u+1bzkhj5jJnx970O3chMa/tHzNyQsJWUDKX4V8tA1wQHFA2Zqb1pjRKL/nZh0zmbDV08UhnA8iEQk/+oD9hKhL3VquTcwSQMg6kVj1xGf/sKhYYqXl2d1G1YSUt5GxOqqoevYPw2GJlZWnvo3yiqxuI6P1VF4pUlDgbN/mYhvVE7xRT5XVjn6W8W1UHGcbVTUeOjdNSPn9HXcbLo+DdGzDB27Q4ryzlbltaJ5Qi0QIMZ4OADEJb1wnVm93Mmu/SQPWLqcvLghsHU+eIpEzL7DnoIp/abPiJzK9eGd1G/VTJWJCSwrbyFgdTaiVyFkXigz0P/XF1r5AFZekvg0NktncRkYVFsnYWRfFP7BH7utrSI5VVKa2DT0u7OCUzW1k8ovj0tPE6mp/+gJkgvKEuuxvY9mx2yiwjzHPfMFefsYz358G51hNbV5uI9/pxbS9cfVac9vwO07XsfQ8Fdq6SaKLVxBmvBywOg4ns/Z39Jj4lZsVCgJd1+YbsMtvwV7dRkZbaVK8SHtlGxmlwTPmInx6ehuZEgpJbOIkf2yDegqSn2j5tBbHad48bWgCaWzKdGrPiwGrrTWZtR/U8i63KxVQ6wAAPFPj6rXm28qbtHzYTcA6Irxlo0Qqq47f3QHZF43EA1Z7Ui1YLVpe2ty0xvWos4QsAACeDlem49n1Wt6hpT6Vi3powzqJrLpAr7SFVGwujY1JeMODYnV1JLO2GQL+Kg1Y+5JZmZAFACBcrV67Shdv1vJKLaVp2eiEiXafP+SONTRgD9Ng9fclu4nrNGA9mOzK7H0E44MmMSoh3WL88cj7YDVNF6/Wcq2WZencdnTmXInOX0Il5/K839Mp4Q3rREaGk93Eu8ebNidQIcsaG9VTX2nwjiQ3A6klf7DlN7d/t/vB6YJ3LI0G9Fgy55oRF10zRkeDW08R7/3tGqxM8rlKy4u1nCnpHhAsFJLowmUSnTqTlJNDoQN77Kc8UxiF/wsasL6e6vvwV8jq6QpkJ0M3g9/ZdRTAJ4bcDhAY1AEFrW4Xx5IZUsOEsqD1NzHDrbgI7WbaDtMn5HhjmPn6WBrs90TA1FBVpotztVyWCFbzM/W7YqVlEl16mqfGXQscDVWhLRvtJzxT8F2JP/CQMn+FrH27RAL27cGMiWR1Ox8rz6T76Mx59retwNTR0IDr2dXNGComRLgZeDXvxWJi6fHh5vWh/Xo8zZoXrG/I5jzj9qRvf+7mBuvc5Lae0h+qLkoU09cq498EolNmSHTB0sCFaU8dc3099mCwVl9vqgHr+uamNWnpE1DguwreuVWicxYG44iKjEnoicdcfwsPPblZoouWBaOO7BGYH3XfZJxYL3LaOYEJpKFtT8RbH9yss2urxGonBaYF2TydFNq3033d6nkpNrEuOPXU2eY+jCYXqEx4Wi7x235nJJbm5Ja90ZxLSiWyaLl+DiaTcnJ5/tqzXUI7tqQ6SXdaA5bvQtaRk5m5hRGd2+iJUdMzdhIzk5E+vt4Olq7raP8usTSgRRYu9fWtHjMnVeiJR5N9bDfeafKR+yS6ZKW/W7TGNKxv22y3trgP+hG7jiKLT5HYpCn+Dg4t++yxj5I6ievnLbze1NMKidU1+Ptid3BvvC9MLH0PB2iYKtLFHC2LtSxNBCvTt0pP9JKbk1goHO/cPnu+/W/k6lrYJ6EtG5I+zx/ly1o+kM6AZb8/L1eefrBW6mJ9UisXFkm0rl6krMJfLREaIM3tQfNNMeWTmJkmQ+soVl7lrzrSC5rpU2VPm5Dat5rEp8Sy+7HZ87b56XFsrRsT1q22lnifoRSZaYTsb/NFJf6pI/MU4fCQ1tGheN+qdGyxospu/fNVPZlz0fCgfVveGuhPditmMubfajFP/E3VMkuLucdq7kebodO9cZIy54OGaRKZs8huxULuzl9mQm7TgpWG8/xHNVz9d0YOlzSFoSP3wE1zrR55YjpGmUmuzAy+qVyVzLeXKRxNAAAvhKvozPmemZw+sLvi8MFE94aBVDdlnsx4vQasH2fsvaYQrMxR9hItr5F450KGtAUA+Eu4QKJTZ0hsxhyJlZRRH7kMVz2dEnpSw1V3Rzo2Z54YW60B6+8Zfc9JhCszh5OZJPHtWqrZ7QAAv4lVVkts2iyJ1k9l1Pach6suCe3aFu/akB4btbxYA9aOjL93F+HKHGVmPiczGzkzXgIA/KWwUEPVNIlNncnEzl4IV90ddr+rJCd1PpFfaXmdBqz+rPwNDgOW6Xj4Sy2ns9sBAL5RVGw/JBWbPEViE+rsvlfIIdOhvXW/Pc6aGQcyjcxEz+/ScPW/WQ2KDgLWi3RhOoUR6wEAeS9WXhl/YrhussRqaglWHmA/6XxwX3yk9tGRdG9+s5ZXaMDalPW/a5yA9XqJP1Yb4hAAAOSlomINUxPtYBU104ox9II3DA/FW61a9ic15qMDZmyHr0p8iIahnITHkwSsNyYCFgAA+cEMtVBabocqqZ4QD1el5dSLV3aPhimrrTVezO3AWCxTv2qLltdquLo/p3/vCQKWmUTz10ILFgDAq0IhiZkBp81AuOZpwMoaLVU8DeilUGXGsurqiHdiN3PIDme8Qcn8gs9p+WKuWq9OGrI0YJnBRB/WQvQHAORecUm8dcpMb1VaFg9Wpl+V/pv+VB4yMhxvqerrFau3Kz7VzXBWc86tWt6j4WqnV6qk4JiAVSzxpwhTD1hm3kCLhjAAwHGYVihznTDzpxYViRQWS6yo2P63vdRgZfpOxYpLAzNJe1qYKbIKMtiSZ6Z2M61TQwO6HBQZHLAnlrf7VGnIyhEz/d4HNVz91Wu749g98T4tK5LZkN1Ua8YXmVAbn3KACTMBAMieoUEpuC8xgLmG11hhkT2Prxn/y/63CaummNa/I7dUzTKSmLvU9I868m8zt6l5yi9RrNHR+L/TMR9s+mzXcoOWX6V7Yud0eaqdtXH1WjMBp+ko5mreABOuoguWxB+DBQAAORHascUevDMAtmr5opabNVyNevmNHt2S9SG3ASs6a75E5y7injgAALkUi8XHmPI301/881p+o+Eqmg9v2A5ZifkIX+cqYC1aLtFpsziwAQDIMSs7T+7lgmmp+o2W72qwuivf3vyRlqxrtTgenS06ewEBCwAAjwgd2OO3P2m3xMfqvEnDVWu+/hFHQtY1TleIVdVIdM5CjmgAALxgeCjekpX/zEzQt2j5mZZ7vdqZ3VXIaly9tkGXq5yuEF24lD5YAAB4hN0XK5a3eWS/ljskfkvwTq93ZHcdsrQ8x+mL7ekJqiZwRAMA4JWQlV+3CiNaHkgEqz9oecwPLVYnC1lnOw5Z9dM4mgEA8Air47A9PpaH9Wsx8wfeo+VfWu7TUDUQlP1jQtYCxyFrQh1HNAAAHhHa76lWrINaHtOy4ahls4aqsaDuHxOy5jrbk6H4PFEAACD3zFyBbS3Z+m2m9aktUcwv3XlU2aVlh4apLnbKs0NWlbNXFtLhHQAAjwi17HPb4f21WsxwCCWJ/2/mKzbDN5l+Ur2Jn5nbe6OJn3VraTdFA9QQNZ5cyKp08sIYcxECAOAZlrtbhes1KK2l1rIchB3vzGiE2gIAwAsBq7NNrMF+N6t8h1rzcMjy2MzbAAAE9+K9b5ebl5tbgT+j1nITsnqoBgAA8oQZ4b3N1Uwza5ub1vRTcbkJWQ6bqGLUFgAAub5wm8FH3XV4/y615vWQNTZGbQEAkEsarlyO8H5Pc9Oax6m43IUsbhcCAJAH7HGxhl2NpkArVo5DlnMRnjAEACBnF213Hd4Pa2mi1nIbsnodvzrGE4YAAOSC1d8rVme7m1V+2Ny0ZoSay23Icj6zJP2yAADITchy14plesZ/j1rLfchyPBs2A5ICAJADY6PxaXSc+3Nz05odVFzuQ1a341czICkAANm/WB/Y67ZfNB3ePRKyuF0IAICHWft3uXm5JjK5nVrzRshyfLtQIoQsAACyGrDaWsUaHHCzyrebm9bQv8cjIcv5OFljo9QYAADZvFDv3enm5WYQre9Ta94JWY77ZFncLgQAIGusPjNsQ5ubVX7a3LSmnZrzTsjqcPxqWrIAAMjeRXrvdrer3EiteStkdTkPWbRkAQCQFSPDYrUecLPGXc1NazZScd4KWZ3OQxYtWQAAZOUCbQYfdTd00jeoNe+FLMctWdYoo/MDAJBx0YiE9u92s4YmMvk9Fee9kOW8JWuEkAUAQMYvzgf3irhr2LiRYRu8GbKcP7ZASxYAABlnuRu2wYwScBO15sGQpcnXjPjuaJQzbhcCAJDhgHW4RayBfjerfF+v5b3UnAdDVmLZ4ujVhCwAADJ7Yd69zc3LzWP/dHj3eMg67OjVsZgGLZ4wBAAgE6zOdrF6utys8qvmpjV7qTk/hCxzAIwMU2sAAGTiouyuFcv4GrXm/ZDV4niN4UFqDQCANLN6u8XqOOxmlX80N61ZR815P2Q536u0ZAEAkP4L8h7XU+h8kVrLj5Dl+H6uNUzIAgAgnazBAbEOHXSzymNa/kzN5UfIcj450vAQtQYAQDpDlumLZR4uc+4LzU1rYtRcfoSs/Y4PhBFCFgAAaTM0KKGWfW7WMCOV3kLF5U/I2ufmYAAAAGm6EJtWLHcTQX+5uWnNGDWXPyGrVeIDmo3LImQBAJAew0PxeQqdMw+q/R8Vl0chK3Ff11m/LPN0obvEDQAAjncRNk8UurumfjUxHR7yJWQl7Ha6Eq1ZAACkaGRYQvv3uFnDDAX/TSouP0PWLsdrDQ1QcwAApHIBtvtiRdyscmNz05o+ai4/Q9YOpyvRkgUAQApMK9YBV61Y3Vq+TsXlb8ja6XitQVqyAABI+uJrWrEirlqxvt3ctKaLmgtAyLIG+qk5AACSYcbF2r/bzRrmovtVKi4gIUsGCVkAACR14XU/LtY3m5vWtFFz+R2yzKjvI05WsghZAAC4ZuYodNkXy1xwv0bN5XnI0pRsYvWTjtYy95GZwxAAAHcX3Z1b3c5RaFqxWqm5PA9ZCVvdpHEAAODwutnfJ1brfjer9Gr5MjXnn5C1xfnB0kvtAQDg9IK7c4vbVqyv0hcroCFLBhgPDQAAJ6yeLrEOHXSzCuNi+TBkOb9d2E/IAgDA0cV222a3q3yJcbH8F7KanYcsbhcCADDu9bKtVayuDjertGu5kZrzWcjS1GyOAmdPMZinC8fGqEEAAE4kFpPQ9ifcrvU55ij0YchK2Og4ndOaBQDAiS+yB/e67V6zV8u3qDn/hqxNjkNWXw81CADA8UQiEtqxxe1aH21uWsNAlD4OWY5bsoSQBQDA8S+we3eIjAy7WcU0cvyYmiNk2axeQhYAAM8yPBSfo9CdDydmX4GPQ5Z5ztTRaGlWf4/bgdUAAPC98Pbm+BR0zt2jAet2as7nIUt3spmM0ln81gOIyaIBAHiaPfBoyz63q32QmgtAyEp4xPEWuGUIAMDTF9atm9yu0tTctOY+ai44Iethx4m9t5taBADAXBMP7rNbslwwPeM/QM0Rso5/QPV0UosAAETGJOx+4NGvNzet2UnlBStkrXccskxLFp3fAQBBv6Du2uZ2yIZDWj5LzQUsZGmqNs1TzpK16fzOyO8AgAAzD4HZ42K5YwYepWNz0EJWwkOOD64eJgoHAAT4Yrplk0jU1RBXZkzKm6i54Ias+x1vhZAFAAgoq/WAWB2H3a727uamNRFqj5A1/gHWTed3AEAAmc7uTz7udq3fasC6k8oLdsgyY2WNOApZpk/W6Ci1CQAI1kXUjOzurrP7oJZ3U3MBD1masofFxaCkVncHtQkACAzzdH1o/263q31Gr6+7qb2Ah6wE57cMuwhZAIAAXUC3bHQ7hJGZsu7L1Bwh64h/E7IAADjm4rl/dzJP1r8jcZcIhCzbvxyHrL5ukSgPSgAAfG5oUELuR3a/TQPWn6g8QtZT9IBo0cUWR1uKRnnKEHkhrEf9rOqwnFpfIOfPKJSzphbK8kkFUlsaonIAjH8OMbcJx8ZcxTIt/0nNBU+Bg9fcpWWRk41ZHW0Sm1BHrcJTLC2nTymQS+cUydlTC2RRbYEUnCBP9Y7E5OGWMbl/36jcsX1EDvZFqUAAT59PWvaJ1X7I7WqfZn5CQtaJ3KPlzY4Ovs42ahSeUVJgyTVLimXN8hKZXuWslaqyyJKLZhba5YPnlsm9Gra+8/CQPHCAIUqAwBsZlvCTm92utUnLl6g8QtaJ/NNxwjeTRY/pxaigkJpFTl25oEg+oiFpUlnytwBNC9h50wvtct/+UfnE3QOyo4t+h0BQhbdqXhodcbOKefTwjc1Na/iWFlDjXoH04Nini+3ODqeYWF3t1CpyprrYku89v1K+dmlFSgHrWOdMK5TbX1Et1y0voZKBALIOHxTr0EG3q31Lr6H3U3uErPH8xfGB2MEtQ+TGnJqw/P7l1XLxrMy0pBbqp+Wj55fJVzXAFdJHHgiO0VEJmwmg3dmv5QYqj5DlxN8ch6z2w9Qqsq6xNiy/vLpKplZkPv28cEGR/O/zKwlaQEDYtwlHXA9v9bbmpjU91B4hy4m/a3H0mJU12C/WQD81i6yZURWSH15ZKRNKrKz9zgtmFNotWiGL+gf8zGo9oGW/29XMBNC/o/bgKGTpwWKGtX3Q8UHp/vFWICnFYUu+fXllWvtfOXX5vCJ5y2ml7ATAr4aH4mNiuWOmP7meyoNR4OK1f9VytuOQNWMOtYuM+8A5pfatQqfMNGPrtxySBx5vkR37umVweExCIUsmTyiTy86ZJWcuqXf1+//zzFJ7mIdHW8fYGYDPhDc/Gn9i3p13JgbyBlyFrD9r+aijkGWeMIxE9AgNU8PImCV1YXnNMmdP+0U1XTXd+aR8/7ebZN+hvmcfs5bISy6e7/o9mNuFn76wXF7c1C0Rxi0FfCO0d2cyYz/+TgPWT6k9JBOyzGOophl04vhXtKh9cMbq6qlhZMwHzylz1Ceqpb1f3vXVu+WxrSd+KOO8FVNlydyJSb0P05J21cJi+U0z874CfmD19yYzN6G5Pr6F2sMzwrrTF2o6N6Mw3uH4ID1MaykyZ0V9gZw7ffyhGnYd7JFrPvLHkwYsY9XShpTez1tOLaETPOAHsZiEzG3CqOum6bdzmxBJh6yEPzjecFtrvAMMkAFmupzxdPYOy+s//Vdp7RgY97VV5UUpvR8zRteqqcx0AOT9RXFHc3z2EneaNGD9nNpDqiHrT1qczSsyOiJWVwc1jLQzTxRePnf8UPTpHzwgBw47G05kb2tvyu/rqoVF7Bwgj5lxHkO7t7tdzXTc4mlCpB6yEkM5/MvxAcstQ2TAyvoCqSg6+b25R7celj/eu8vxNv/6wB6JRFJreTVjZwHIU2by5yceTWbNN+m1kVG4kXrISvi94423EbKQfmdMGf95jbW3b3a1zT0tvbL2D5tTel/15SF7YFQAeSYWk/CmR5IZ1f37GrB+SwUinSGryfErhwbF6umilpFWC8cZF2t4NCL/WLfP9Xa/8pNH7GEejscMAXH3+vFHfV4wkWFLgLy7EO56Mj70kDtbtbyb2kNaQ5am9j26eMTp661DB6hlpNV4rUVP7Oywg5ZbJkh99Lv3yXUf/7Pcds8O2b6v2y53/HuXXPuxP8u7vvLPcZ/lmFFFyALyiRluyIQsl8zow6/U6yFzyOGkCpJc7xYtpzlKca0HJDp/CTWNtKkpPnnISrUT+0ObW+1yPIe7BuzR4U+kuphxHIC8YfphPb4+mSfhP6oB6xEqEONmoCTXu9XxK4eHeMoQaVU4zlHbNzCasd/d23/ybVcUErKAvGD6YZnxsNz3w7pLyxepQGQsZGmCb9bFJqevT2IGc+CExsYZI7CspCBjv3u8bfeNMjYckBcXv51bxepw/VBgp5Zr9RrIJFrIXMhK+KXjX3LoIAOTIm26hk9+fps2qSIjvzccsqSupvTkIWuE4xzwOqutNZl+WMbrNWDtowaRjZDlfHRbMzBp+yFqG2lxoPfkIWvJ3FopCKd/KIXG2ROlsGCc/mA9fMEFPB2wBgfitwnd+wrDNSBrIUsPNjMs7gOOf9HBvdQ20mJb58mfHDS39M49ZUraf+9zV80Y9zXbOyPsIMCrIhEJbXxIZMx1v837tXyYCkTWQlbCzxx/ezBzGY6OUONI2QMHxsZ9zasuX5TW32lasF56yfyTvqZtMCo7uwhZgFeZEd2tPtdPH5sBtF7R3LRmlBpEtkOW6Zfl7P6Imdm8hQ7wSN36ljEZGjt536cLT5suZy6pT9vvvO75i086dINx774xoUcW4NGLnRlw1PQPdu/axPiQQHZDlh54ZjChO52+3uKWIdJgUAPW33aO/6Xyv68/VyrLU5+0ecHMGnnHNSvHfd1tW4fZOYAH2R3dd2xJZtUv6HXuj9QgchKyEn7o+EDv6xGrt5taR8p+sXn8QDOzvlL+530XSUlR8qOwN9SWyXc/9FwpLjz5Ng72ReWefdxNADwXsPp74wOOune3lhuoQeQ6ZJmBSR1PUGjt302tI2UPHBiVx1rH75t11rIGufmTl8mUunLXv2P5/Dr5xWefL1Mnjb/u99YPSYQHCwFvGRmW0GMPiUTG3K5phml4eXPTGjpZIiUpT7TWtvnWsbolV8/Uf57pKGQN9El0xhyNdyFqHynZ0RWR1Y3F476ufmKZvOTi+TIyFpXmnR0ahk7ec6qmslje8YqV8um3OLvduLs7Ih+5q18idMgCvCMalfBjD9otWS6ZZvLLNWBtpRKR85BlaMgyg2C9ydGLzaCkxSUSq6qh9pGSA31RmV4VksV144/wXlwUlvNXTpVrnrdIpk+utP9/RFORCVwVpYUyo75SzlsxVd744mXyyTefY3eaD4WcTZHzrr/2y65umrEAT13czJOEyY3P+AYNWHdQg0iHtE201rh67QZdLHeUs8orJXLWhdQ+UlZeaMnvXlYls6rDOfn9Nz02JJ+/d4AdAXiI6eSe5IjuN2rAehc1iLQdi2nc1vccJ7v+XrG62ql9pKx/NCZv/VNfTqazuXffqHz5fgIW4KmL2sG9yQasu7S8jxqEV0PWzVr6HP/ifbuofaTFkx0ReeMdvTKYxcmZNxwak+s13I1xlxDwDDPhc6h5QzKrmieyXtbctGaMWoQnQ5YenD26+KnjD8PhFrGGaAVAeqw7OCav+X2vdAxmPmj9a++o/bv6R+npDngmYPX1SHjTw/F+v+6YC9GL9RrWRi3CsyEr4duOX6kfBGvPTvYA0sa0Ll3V1C0Pt2Tmy6g5dX/74UF5wx+y22oGYJyAZSZ9fvQBkTHXn33TFv1KDViPUovIhLT2Fm7bfGtr3ZKrL9V/znT0wejvk+j02QzngLQxfbN+u3VYuodjcvqUAikKp+fZjub2iLztT3267RGmzgG8ZHREwuvvE2toMJm136MBay2ViLwIWYaGrCFdvNRZ04B+iSgslFj1RPYE0sbcLXi0dUx+uXnYHrtqwcQCKSlILmxt0XD1mX8PyKf/NWCP6g7AQyJjGrDuT2YsLOPbGrA+RiUik6x0b7Bx9VozeuMuLVMcrVBcImPnPlfficXeQEaYWXUumV0kz51dKOdMK5T68hO3nJpxSje3jcl9+8bk9m3D+m8GfAY86chgo51JdaUy8xG+kBHdkXchKxG0PqKLzzj+rDSeItGpM9kbyIqaEkvm1oSltjRkj7M1psmqbzQmLX1R2dkVlWGGbge8LRaT8MZ19sTPSXhMywUasHqpSORryJqgi71aHE0YFystl8jZF9GaBQAYV3jzerFa9iez6kEtZ2nA2kstIhsy0uNcD+BOXdzkOOkN9ovVup+9AQA4+UVry8ZkA5YZZuhKAhbyPmQlfF2L4/vdod3b2RsAgBNfJ7ZuktD+3cmsOqrlpRqwHqEW4YuQpQezGQTrN05fb0+103qAPQIAePbFantzsjOFmE6Wr9Fr0t+oRfgmZCV8ydWbMfNNxeh0DAA4JmDt3pbs6u/WgPUrahG+C1l6YD+kiz87fb3dmtVC3ywAQFoC1mf0OnQjtQhfhqyET7h5cXjnFlqzAACpBqxvasD6L2oRvg5ZepDfLy5as2RoMNmOjQAAApZxs5Z3UovwfchK+ISrN2X6ZkUYiBcAAnlhevLxVALWb7W8Tr/gc0sEwQhZidasuxyvMDIsoT0M6QAAgRKL2eNghfbuTHYLt2m5hulyEKiQleBqIk47ZA0PsYcAICABK/zEo6l0F/mHlpdpwBqhMuEV4Wz9orbNt+6pW3L1GfrPhU4/cNbosMQmTWEv5TFrcEC/le6wv5mGWvaLNdAnUlIqUlhE5QCIM5M9b3pYrEMHUwlYZjR3vpnDUwqy/Ps+rOUF4nDORDOcgzV9jsSqathT+WZ0REI7tkrowO5nPC1qtR8S2b1NovMaJTpzHvUEBN3YmIQ3PiRWZ3uqAWuAyoTXhLP5y9o233qobsnVs/WfK52uY/X1SmzqTPZUHn0jNa1W4U3rxOruOPF+7WgTKS6RWGU1dQYE+MtY+NH79VzRScCCL4Vy8Ds/rsVxk67V0ymhg8znmQ+swy0SfvCfEtq22f52Ou7Bt72Zp0iBoJ4vBgckvO7fYvV2E7DgW+Fs/8K2zbd21y25eqL+8xzHH0b9lhM1rVnhMHvMiyfLjjYJP/6I3ffKGh11vmI0IrEaPRTKyqlEIEjnDA1W4fX3izU8mOwm7tTyQgIWvC6Uo9/731qc34A3/Xu2P8He8tqJsqdTT5T3xZv7e7qS/DbbT0UCQTpvtB+S8CP32kP1JMkM0/B8AhYIWSegHw5zA97VdAehA3vE6upgj3nhJNnZbn8LtZv6k++saosVFFKhQFAuOHoeD294KJVuAr/UspphGkDIGt/3tTzq6s1u2ci8hjn9BnpYwg/fa7deWZ1t6dmouV0IwP8Xm+1PSKh5Qyrn8Ju0vJqAhby6bubylzeuXnuBLu52s050zkK7IEvM04Kt+8Xas0Os/t60bjpWP1UiS0+jjgFfn0MiEn58vf1gTAq+puW9TJUDQpb7oPVzXVzj/B1bEjnzAolVVLH3MslMbbR/d3z05eT7Tpw4YOn+i5x2rkhBAXUN+NXwkH17MIUnCI2Pa7j6FJWJfOSFK9z7tbxQi7NHzMzcVpvXS+SMC0RCIfZgulN3Z3u8/9vhg3YrVvp/QUjOOGuB7KhdIIcGqW/At+eSni4Jb1yXyvRo5gT0Zg1YP6A2ka9yPiZC2+Zbe+qWXG0eMbvc8Yd3JH5LPjahjj2YDubpTQ1WoSceiw/DYG4LZqDv27S5U+WmGy6Rt1wxT+ZNLJDbnqRrBeDLgNWyLx6wxkaT3YT5CmYmev4ZtYl85pV7Nd/U8motZzpdIbR7m8QmNTBieNLfEaNitbVKSE+G9lQ3GXygoGxCtXz4tWfI6nOnPfWzi2YWyksai+U3zcPsC8AvzJ0G08F9z45UtmLuLZoxsO6hQpH3Xzi88kYaV689RRcPuwl+sdJyiay6QCRMvx6nJ0DzVKCZhDV06ICjUdlTUVheJtdedYq898ULJGQ9+1DrHYnJFb/oltb+KPsGyHejo/agxFbH4VS2slvLFRqwGBgRhKwMBK3P6eJDrnJDw3SJLFnJnjwR02LV2a7B6oCEzNM9yTffOxYuKZarL18mH3vFYiksOHm/uX/tHZXX3d4rPDIE5PGFxIzgbm4PDqXU0dJ8yTbT5LRQo/ALrzUBfVLLai3zHX+4ze2uiZM0bE1jbx4xPCSh9kP2bUB7IubIWFZ+baioSC69qFE+c+0yqShxdmidP6NQXrGkWH6xmduGQD6y+3Nu3ZTqgzJmFPdrGMUdvvsC4rU31Lh67bm6MPfinT86GC6wbxua24eBpCHK6urU0maHqhQfl3bNtFxdeekS+fg1i6W02H1uHxyLyYtv6ZEdXUwWDeSNaERCWzZJ6ODeVLd0o8THwOIEAEJWloLWZ3XxYTfrmA7wkdPPC8awDqMj9uPRZuJs+1ZgT2dORsI3fa5ectkSueFljePeFhxPc3tEVv+6R4Yj3DgEPH/h6O+V0KZHUh2g2PRdeLuGq+9RoyBkZTdkmQntHtKywlXQmjJdIot91j/LtFL19Wrpjk/CbILVQG4nVa6ur5U1Vy6WNz1vjoRD6TuEfrppWD5xDxNGA56+aBzcJ+GtG1OZf9AwE9G+VAPWXdQoCFm5CVrLdLFOS7GroFU/VaINM0RKSiWmRcLh/NgTesKyBjVgDPTpt8O++DfEvp6cB6qnjxRLZs6fJu9/+TK5dOXkjP2at/2pT/6yk/GzAC+eo8JbNtr9YFNknhw0QzRsp1JByMpt0HqvLr6c0kYKiyRWpDmtuERL8VP/fupnBfrfCwvt14mVoeowt/LMLT4tplO6ZZ7A0WINJ5aDA6k+lZMxhWWlcv7Z8+SDL22UWZPLMv77eoZj8sJfdcuBPoZ1ADxzoejpkpCZf3Aw5S99t2q5TgNWL7UKQlbuQ5Z5f3eIi9HgU1JQoIGrKB64TPAKF0rMtISZ+fXMWFzHC2EmQJmn93RhRUbjY0+ZZnTzs9HReLAazbOWGf07G2Y1yJorFsp1F8887hhXmbTx8Ji88re99M8Ccs0MLrpnu4R2bElHv8+PaflvJnkGIctbQcvMnfOoFsZoyLCyidVy8dlz5V0vnCfT68py+l5+s2VYPvh3+mcBOTM0KOHNj4rV1Z7qlkyr1Ws0XP2eSgUhy5tB63xd3CUemGvRb8ztwBWnzJS3v3CBnLVwoqfe26f/NSA3bxxiJwFZZoZlCD35eDpmhdgo8Q7uT1KrIGR5O2iZkeA/xy5LXVFFuZyydLpce+kc+Y8Vk8Xy6FEQiYpcd1uPPHhgjJ0GZMPIsISbN9jzmqbBWi1v1YA1SMWCkOX9kGXe6x+0XMFuc6+itkZOXTZNXn3RLLlwWV3evO+OwZi85Nfdsr+XjvBARi8Ghw7aTw+moQ+pmb7hHRquvk+tgpCVRzRo1ejiAS0L2XUnFyoslKkzJ8slZ0yX6y6aIdNy3McqFWag0lfe2iN9I/SXBdLOtF6ZoRkOp2XKwG1aXqYB61EqFsizkJUIWo26uF9LNbvvqB0ZDsvk6ZPk1MX18qJV0+TCZbVZfyowk8xE0m+8o1fGaNAC0vdlzO57tTldE8f/VMtbNGD1UbNAnoasRNB6vsQnFA0FdceZKW2mTq+VUxdNluetnCzPWVIn4bDl67/5183D8qF/8MQhkPKJf2hAQs0bxeo4nI7NmQ/l2zRcraVmAR+ErETQer8uvhiEnVRUWSGT66tlwcyJsmphrVx22iSZMqE0kAfsjQ8NyjfX0Y8WSIo97tUOCe3amuq0OEes1/JKDVhbqFzARyErEbR+pIs1vtgToZCUVlXIhImVMnNKlSyYXi2nz6uW8xfXSnlJAUfqUcz4WWYcLQAuTvbdnRIyTw72p2WwdXPj/ktaPqoBa5TaBY4v36/eb9TSoOUy92ccS0qqKiUWGZPRoWGJjkUy9iZDxcVSVFwkJeXFUlFeIhOqS2RaXbnMbqiQhVMrZMWsKpkysVQsiwPSic9cVC6dQ1H5x27O7cC4RkcktL1ZQgf2pGuLZkNmapx/UrnAOFEj3/+AxtVrK3RhPuynuV23pKxYvvOpF8nZs0olEo1J/+Co9A6MyOHuYWnpHpH2nhEZ058PjYn+txFdxuyZJQZHIlJa9PS4qJVlhVJYEJLK0rBMKC+UCfr/66qKpKFGQ5X+O0R6SjuzL17/h17G0AJOxNwaPLA7PiXOaNq+kPxE4sMzdFHBQABCViJo1eviXi1zXQet0iL56kevlIsXVHA05BkzpMNrb++Vx1oJWsAzTuzdHRLaskmsvp50bdKMTmqeHLyV2gUCFrISQWtBImi5HmmzsKhAPvX+K+TFKydwRORh0Lrm1h7Z0h6hMgAz3+D2ZrFa96dzq00SH7m9jQoGAhqyEkFrucRvHbpOS+aO3vve/h/yuudM4ajIM51DMbn29wQtBFhkTEK7t9tPDko0bZ8DM76DGZrhFioYSI6vJlxu23zrobolV9+l/3y5lmK369/74A7pCJXJBYtr6YSeR0oLLLliXrHcvXdU2gcZFR7BYjq0hzeuE6v9kN0PK01u1vIiDVjrqGEgeb6MEo2r156li79oqUpm/edcuFS+9ubTpKyQpJVPTIvWdb/vsafhAXx/8m5rtZ8aTNOQDEeYJwffpOHqz9QwQMg6WdC6RBe3a0lq1M4FC6fKtz9wkUyvZoyqfEJnePj+pG06tZtw1dWRzs2abybf0PIxpsUBCFlOg9ZzJD79TlItWtU1ZfL1G66Qs2eXc6TkETO8w5vu6JP79jOOFnx0su7vjYerttZ0b/pBLW9mUmcg/cJ+/uPaNt+6u27J1X/Tf75ES5nb9YeHRuX2O5ulYNIkOX12JUdLnigIWXLlgmLZ0RWRbZ3cOkS+h6s+CT+5SUJbHxdrIK2NTN1a3ivxJwcPUtNABj6/QfgjG1evXaaLP2mZluw2LrxoqXzhDadKdXGIoyZPmC7An/33gPxowxCVgfw7OQ/0S2jnFrEOHUxnh/Yj/k/LhzVctVLTACErHUFrfiJozUt2Gw1TJsiX3n+pnDGjlCMnj/zfY0PyuXsHhOcOkRcn5f4+Ce3eFh/rKv3hyjwt+HYNVw9Q0wAhK91By8xzaPponZHsNsIhS974/54jb79sloR5+DBv/HH7iLz3b30yGqUu4NGTcV+PhHY+KVZbSybClRnz6gYtN2nA4lMAELIyFrRM3ywz/9bVqWxn6fJZ8rnrz5UFdYUcRXli3cExeeufeqVriDYteOgkbJ4W3KXhqv1wJjZv7pV/XcvnNFz1UNsAISsbQct0+P+ilveksp2iogK5/vUXyhsunkarVp7Y3xuVt/yxl7G0kPuT7+GDEtq9Q6yezkz9il9IvN/VLmobIGTlImy9VeJjw6Q0GFZj4zT59NvOl2UNxRxReWBwLCYf+Hu//Gn7CJWB7IpGJXRwr1h7tos1OJCp32LmcH2vhqv7qXCAkJXroGXG0vqVlvpUthMOh+Sal58t73zBXKniCcS88K2HB+XGBwfpEI/MGx6S0P5dWvaIjGYs3D+u5SMarn5PhQOELC8FLTMrtJlp/txUt1U7sVLe9cbnyEvPqKVy88Cdu0bsVq2eYaIWMnCC7eqQ0L5d9q3BDHRmP2K3lo9r+TGd2gFClleDVpEuvqzlHenY3pKlM+T9rz1Lzp5dRuV6nOmn9c6/9MmGQ0zFgzSIRCR06IBYJlz1dmfyN7Vo+byW72i44t43QMjKi7D1Cl38r5bqdGzvwguXyHuvOUUW1BVRuR42pt//v3DfgKzdMMTtQyR3Mu3vFWv/bgm17NcDKqNTOplw9QVzntJwNUjNA4SsfAtasyQ+zMP56dheyLLk8stXyNtfvFjmTGTIBy/7x+5Ref+dfdLN7UM4EY3aI7KHDuxO94TNx9Ou5UtavkG4AghZ+R60zDAPH9LyCUnx6cMjwgUheeELTpM3XLFA5tUStrzqYF9U3qdB68ED3D7ECU6cPV1iHdwrITMq+1jGjxPTcvUVLd/VcNVH7QOELD+FrVW6WGv+ma5tmpatSy9dLm++arEsqWfYBy8y7Vg3bxiSL90/KMMRWrWgRoYl1LJPw9U++9ZgFuyQeMvV/2m4GmYHAIQsvwYtk4T+S+ItWwXp3PbZ5yyU175omVw4v4KK9qCdXRF53539dIoPqkgkPmhoy36xOtsy+YTg0TZr+ayWX2q44sADCFmBCVvLdXGTljPTve258xrkNS8+Va46vU7KCtktnrrO6nX1e+sH5RsPDdod5OFzGqSsjsPxVqu2VjtoZcnftXxVyx0arrLefKrnt0pdPE/LIi2TJd4HbJuWP+v76eDAAAhZ2TgRmb5a/ynxvlqV6d5+RUWJXHXlqXLNRbNlPv22PGVrR0Q++s9+eaSFxgVfBqvOtngndjOm1ehotn6zOZh+qeUrGmTW5+icNkniLfVv0XK8x6BNyrxZy0f1Pe7nYAEIWdk4MZkBTE1/iVdn6necsnKOXP28xfKCFbVSWcSu8opfbh6WL90/wBOIBKtUmJahH2j5Hw0u+3J4HjOt8maE+AYtrVq+p+VOLWa26lotZkaMN2mZqaVLy0v0/f6DgwcgZGXrJHWexJv4V2Xqd5SUFMlzL10uL71wjj24KTst9zoGY/LZe/vl91tHGFcrn0TGxGo/rKGqRZeHMj2e1fE8aoKVlp/nehgGPXeZh3ke0FJl3o8JU8d7elFfV6qLG7W8UYt5zxfo6x7mYAIIWdk6WZl6NIOYms6qczL5u6ZMnSgvuny5/MdpU2RpPQOc5tp9+0fl0/8akCc7IlSGV5l5A9taxWrTYNXZbo9tlWXmluCvtXxTw8m/PHTOMu/FTCX2Gy2rE/82XxbNQMwFiUBlQqHpkzWm65hbhtdq2aDlVKbwAQhZ2T5xmdTzei0fk3jze0bNmDVZLrtkiVx+egOBK4dMx/hbnhiWrz84KO2DXHdyztwG7O60W6rs0teTq3eyU+K3BH+ogaTFY+eqK3Rxh5Z+LbP1/bXpz27Vf1+VCFem0iYnrhF/0v9+hf73Gv33rkQIe5n+rImDDSBk5eIEZprXr9fyvmyEracC18WL5TINXMsaGHsrF/pHY/KdhwflRxuGGVsr20xrVcfheKjqaMvFbcAjzC++NRGu/ubV1h49R5mx/66T+ACnb0387EjIulp/dqv+/7P03/cnVjFBbLf+zNw2fKeWW/T/v5wDDzi5Aqog/RJ9Lb6iJ6Rv6/LNWj6gZUomf+fe3YfkBz8yRb9+1tfIeectkotOnSLnza2UcjrNZ0V5oSXvO7tMXrm0RL7ywID8YduIRMlamTE2Fu+0boqGKmsg5wOhP65FP31ys37+D+VBDZ6eWP7zJK8xHeFNSDTns86jXm9C1koOQmB8XH2z863R3Mt7lZb3aFme1RRdWCCnnj5XLlo1Wy5YXCsL6hgWIlu2tEfkxocG5W876RyfllBlbgF2tceDVW93tgYGPRnzhKDpMP4jDVbr8uyc1Cbxpwcv1vd+V+JnR1qyTGA0twtP1XJQyxv0NX9PvOZsXdynpVt/VsOBCYxzDaYKMk9PRiOJb7k/0pPUpbp8t5bnZ+XaNDomD92/1S5mvImGhgly5plzZdXSBlk1r1pm1nAIZMqi2rB8+/IKeaItIv+zjrDlyuiohqp2e9Jl01nd7lcV80Ttmc/yn7T8WMtteTzdTUciZB1vrD8zVIPpq2XGBDRDN0w46r9VJZbMoQgQsjwZuP6mi78lHp82Ycs8rVOard/f0tIpt932sJb4/2+YMkHOWjVPzlo2RVbNrZRpVRwS6ba4jrA1HjMXoGmpEtNaZcqAp67hZnfdJfFWq1/7ZPTz7VoWSHz2ituO+W//ZVq39Bz1//TfP9TyBYk/HWmcmlhu5agFHJzbqILcSjyxY4KWeSpxRa7fT319jaxYMVOWL2qQlXOqZemUEikt4DBJ69WtMyI/fGxIbt06LCNBHPlheEisni77lp+97Om0bwd6kBlD6ldafqGh44DPzjvmwZxvSXwS6kWJIRqO3C68OBGyTAuWua0Y0jJLy14t6xPnqffra77MpxkgZOXTic98qzQD/r1SiydmjA4XhGRh4ww5ZclUWTG/VpbPrJQ5EwslzJGTsrbBqPx447D87PEh6RryaduWCVQmTB0JVKYv1Yhn77CZnWCepjOtNubpuT0+PteY24SmNWvSkcCkP/up/vsFWq48Mp6X/sy0cl0g8anETDO3eWpSd6LM09e08ykGCFn5eAIs18U1Wl6r5Xyvvb/i4kKZv2iaLJpfL4vnTJTGaRXSWF8iFTzFmJTBsZj8pnlEfr55yO4sn5eiEbH6++J9p7RYdukVGR3x/DvXck8iWP3aby1W45xnzBAOZigHc9C9Vv/2n5zktVea4KmlRMs79bX/wycXIGT54URoOp6+IhG6TvPye50+vVYWLZoqc2dOlDlTq2Tu5FKZW1fMvIsurG8dk188PmwP/+DJsbbGRsUa6Lf7UIkJVWY5oMuhQa90THdC37T8WcvvtNzhkz5WyZ5fPi3xyaElETTNFGH3HxnfS/+7Garh7Vpel7hefEf/2/V8UgFClh9PiIsSYcvcTlyUL++7bnK1zJlTb4evudOqZebkcpk+sVimVxdICf29jstMPn3rlmH55RPD2Z+yZ3RErMEBkcH+eKAy/7aX/fnQMnUiZvR1M8K5uf11Vx4/FZiJ88prJD7Z/ZGBk4e0mLG+zNOH5YmfmXGybtB6+w41BhCygnBiPEUXV2t5kXi8hetkauuqZdqMWpk+tUam11fJ9EnlMq22RBqqi2RyRQG3INXjh8fktidH5PZtI9Lan+IA4tGoWMNDdl8pu7+UaYHSYg0NPL2M+KI3vgkKZuBMM9zCHzUcbOGscdLzSZkuTNh6ofm/Eu+rZVr4ntTyB4kPstpFTQGErCCeIKcnTo4mcF2ixTcTGZaUFUvDlIkyaVKlTKqtkIa6CplcUyqTakpkQkWhTCwvkAllYZlQEpbCsL/3s7kZ9+CBUbldA9cft4/YrV3x/xCLtz6ZVibTqXxE/20v48X+twlUJljlb0uUE2bi4ju1/FXirVWDnB0AELKQzsBlnkq8TOJPCZmBT2cE5W8vKy+W2tpKqamp0FImNVWlUl5WJBV2KZTy0kKpKCmQitICqTTL4pCUFYWkqCBk37Ys0lKmJRzK3nvuG4nJSCQmg6Mx6RuO6DIqQ1r6hvTf+v/7hkald2BUevp12T8svX3x0t7RJ5u3t8WDVWQsqIf7rkSoMmPP3amh6jBnAACELGQzdC3UxX8kAtfFWqqpFQeBTYNZuEBDWVmBWAVPNwyWalArdNpkFonKyGhEhkYi+kGLyuDAsIyOxWRsZEQGh0apZPfMrau7jxQNVbuoEgCELHglcJl0cIaW52m5SIuZh6yMmoEHmY5h5vbfvUeFqhaqBQAhC/kSuszggmaajHO1nCfxQQcbqBnkgHma7b5EMSOtP6Shqp9qAUDIgp+C19xE4DLBy7R6macYi6gZpJF5Sm2dlocTZZ0Gqp1UCwBCFoIWugp1sVzL6UcVghecMvPdmdt+G7U8lghV2zRUMUc2AEIWcJLgZcLW0kRZJgF6khHPYkZRf/yoQGWWGxhbCQAhC0hP+KrSxZJEORLAFibCF8da/jMjoe7S0qxlq5YtibJVw9R+qgcACFnIfvgq1sUcLQu0zNcyN/FvU2ZpCVNLntGdCFJHys5E2Sbx23wjVBEAELKQHwHMPOFoWrqmJ8rMRJl+VJlMTaVFnxbT4nRAy0Et+xLLPUfCFLf3AICQhWAFsZJE2JqUCFz1iX83JJZH/9tMahsKSNWYod7btbRpOZwo7YnSmli2JILVfg1QfRxNAEDIAlIJZZUSH9m+5qhlzTE/K0ksTSf+cokPymqemDT9ygoSS3Obs/SYzRcn1nXCTFI8fNT/N0/UmdtxZqBN01HcDPven3idKQNazO24nsTreo5Tjvy8Q0NTD3sbALzr/wswAGEHYF9A2yCEAAAAAElFTkSuQmCC;" parent="1" vertex="1">
                    <mxGeometry x="371.77" y="401.51" width="39.73" height="28.49" as="geometry"/>
                </mxCell>
                <mxCell id="6" value="" style="shape=image;verticalLabelPosition=bottom;labelBackgroundColor=#ffffff;verticalAlign=top;aspect=fixed;imageAspect=0;image=data:image/svg+xml,PHN2ZyB4bWxucz0iaHR0cDovL3d3dy53My5vcmcvMjAwMC9zdmciIHdpZHRoPSIyNTUuNDM3Nzg5OTE2OTkyMiIgaGVpZ2h0PSIzMjkuMjIyOTkxOTQzMzU5NCIgdmlld0JveD0iMC40Njk2MTIzMDAzOTU5NjU2IDAuMDgyMDAwMDAyMjY0OTc2NSAyNTUuNDM3Nzg5OTE2OTkyMiAzMjkuMjIyOTkxOTQzMzU5NCIgcHJlc2VydmVBc3BlY3RSYXRpbz0ieE1pbllNaW4gbWVldCI+PGRlZnM+PGxpbmVhckdyYWRpZW50IHgxPSIzNS4yMDQlIiB5MT0iNjUuMDc5JSIgeDI9IjEwMS4xNTklIiB5Mj0iNTAlIiBpZD0iYSI+PHN0b3Agc3RvcC1jb2xvcj0iI0ZGRiIgb2Zmc2V0PSIwJSIvPjxzdG9wIHN0b3AtY29sb3I9IiNDMDgxNUUiIG9mZnNldD0iMTAwJSIvPjwvbGluZWFyR3JhZGllbnQ+PHJhZGlhbEdyYWRpZW50IGZ4PSI1MCUiIGZ5PSI1MCUiIHI9IjUwLjUyMSUiIGlkPSJiIj48c3RvcCBzdG9wLWNvbG9yPSIjRkZGIiBvZmZzZXQ9IjAlIi8+PHN0b3Agc3RvcC1jb2xvcj0iI0E5NDQzNiIgb2Zmc2V0PSIxMDAlIi8+PC9yYWRpYWxHcmFkaWVudD48L2RlZnM+PHBhdGggZD0iTTQuMDk2IDMyNS40NjNzLjQ5Ny03Ny45ODQuNDk3LTE1Ny4yNkM0LjU5MyAxNC42NTQtOC4zNDYgMy4yMTcgNjAuNTUgMy4yMTdIMjUyLjMydjIyMS40ODNjMCA3Mi45MSAxMy42MjkgMTAxLjQ3Mi02Mi45OTQgMTAxLjQ3Mi03Ni42MjIgMC0xODUuMjI5LS43MDgtMTg1LjIyOS0uNzA4eiIgZmlsbD0iI0E2MkMzOSIvPjxwYXRoIGQ9Ik0xLjg4NyAyOS45MTdzMTIuMjg4IDIuNDU4IDIyLjkzOCAyMC40OGMxMC42NSAxOC4wMjMgNjcuMTc2IDE1OC4xMSA2Ny4xNzYgMTU4LjExVjk0LjYzNEwzOS41NyA5LjQzNyA1NC4zMTcgMjcuNDYgODIuMTcgNC41MiA0Ni4xMjUgMi4wNjQgMS44ODcgMjkuOTE3eiIgdHJhbnNmb3JtPSJ0cmFuc2xhdGUoMTYwLjMxOCAyLjI2NikiIGZpbGw9InVybCgjYSkiLz48cGF0aCBkPSJNMy4xMDIuODg5czgxLjEwMiA1NC4wNjggMTIwLjQyNSA2NC43MThjMzkuMzIyIDEwLjY1IDc5LjQ2NCAyMi4xNSA3OS40NjQgMjIuMTVsLTkyLjU3MiAyMjkuMzUgNDAuMTQyIDEuNjM4IDUyLjQzLTEyOC42MDRMMjAxLjM1Mi4wNyAzLjEwMi44OXoiIG9wYWNpdHk9Ii42NjgiIGZpbGw9InVybCgjYikiIHRyYW5zZm9ybT0idHJhbnNsYXRlKDUwLjE0NyA0LjI2KSIvPjxwYXRoIGQ9Ik0xMjguNjE3IDI0Ni44MTdsODIuNDE5IDc5LjIyLTE1NS4zMy0xLjM5NHMtNC45MTUtNDkuOTcyLTMuMjc2LTc2LjE4N2MxLjYzOC0yNi4yMTUgOS44My0yNi4yMTUgOS44My0yNi4yMTVsNjYuMzU3IDI0LjU3NnoiIGZpbGwtb3BhY2l0eT0iLjQ0IiBmaWxsPSIjRkZGIi8+PHBhdGggZD0iTTIwNi40NDMgMzI2LjI4MmwtNzYuMTg4LTc4LjY0NS02OS42MzMtMjYuMjE1TDYuNTU0IDEwMC45OTcgNjMuODk5IDUuMTVIMjcuMTYzTDkuODMxIDE4LjI1NyA0LjA5NiAyOS43MjZ2Mjk2LjU1NmgyMDIuMzQ3eiIgZmlsbC1vcGFjaXR5PSIuMzYyIi8+PHBhdGggZD0iTTI1My4xMzggMjAwLjk0MnMtNzcuMDA2IDI0LjU3Ni0xMjIuODgzIDQ3LjUxNGMtNDUuODc2IDIyLjkzOS03MC40NTIgNzguNjQ1LTcwLjQ1MiA3OC42NDVzOTguMzA2LTQuOTE1IDEzNS4xNy0zLjI3N2MzNi44NjUgMS42MzkgNTQuMDY5IDEuNjM5IDU3LjM0Ni00OS45NzIgMy4yNzctNTEuNjEuODE5LTcyLjkxLjgxOS03Mi45MXoiIG9wYWNpdHk9Ii41IiBmaWxsPSIjODMyMjJEIi8+PGcgZmlsbD0iI0ZGRiI+PHBhdGggZD0iTTI3LjgzMyAyNDkuODY3djQ4LjM4NWgxMi4zNHYtMTIuNjAzbDExLjIzMiAxMS4yMzFINzAuMzRsLTE1LjAxOC0xNS4wMThzMTAuODA1LS4xNzQgMTEuNjIzLTE1LjgwMWMwLTE0LjMzNy0xMC44MTctMTYuMTk0LTIzLjMxLTE2LjE5NEgyNy44MzN6bTEyLjkyOCAxMy4xMjVoMTAuNjQ0djguNjE5SDQwLjc2di04LjYyek05NC4xNzMgMjUwLjA2M2MtNi43NTYtLjAzOC0xNi4xMjguNTg5LTE2LjEyOCAxMy4zMnYzMy42MjhoMTIuNjY4di04LjIyN2gxMi4yNzV2OC4wMzFoMTIuNzMzdi0zNS4yNmMwLTExLjA2LTEyLjI4Ny0xMS40OTItMTguODctMTEuNDkyLS44MjMgMC0xLjcxMi4wMDctMi42NzggMHptLTMuMjY0IDEyLjE0NWgxMS44ODN2MTMuMjU1SDkwLjkxdi0xMy4yNTV6TTEyOC40MTIgMjUwLjA5NWgxMy4xMDd2NDYuMjg2aC0xMy4xMDd6TTE1NS4yNDIgMjUwLjcxdjQ2LjI4NWgzMS41NHYtMTIuMjg4aC0xOC42Mzh2LTM0LjIwM2wtMTIuOTAyLjIwNXpNMjI4LjU2MSAyNTAuM3YxMi40OTNoLTIxLjA5NHY0LjUwNWg5LjAxMWM0LjcxIDAgMTQuNTQxLS4yMDQgMTQuNTQxIDE0LjU0MiAwIDE0Ljc0NS02Ljc1OCAxNS41NjUtMjAuNDggMTUuNTY1aC0xNi41OVYyODYuMTRoMTkuMDQ3YzUuNzM1IDAgNi4wNTEtMS44NjYgNi4wNTEtMy40OTMgMC0xLjYyNy0yLjkzMi0yLjM4My04Ljg5NS0yLjM4My01Ljk2MiAwLTE3LjAyMi0yLjkzLTE3LjAyMi0xNC40IDAtMTEuNDY4IDUuNzM1LTE1Ljc3IDE3LjIwNC0xNS43NyAxMS40NjkgMCAxOC4yMjcuMjA2IDE4LjIyNy4yMDZ6Ii8+PC9nPjxnIGZpbGw9IiNGRkYiPjxwYXRoIGQ9Ik0zOS4zMjIgMjM2LjE2OGgxMDguOTU2cy0yNC4xNjctNTQuODg3LTE4LjAyMy0xMDUuMjdjNi4xNDUtNTAuMzgxIDQ1Ljg3Ny03My4zMTkgNjguNDA1LTc1Ljc3NyAyMi41MjktMi40NTcgMzQuODE3IDExLjQ3IDM0LjgxNyAxMS40N2w0LjkxNS03LjM3NHMtMzIuMzU5LTMyLjc2OC03My4zMi0yOS4wODJjLTQwLjk2IDMuNjg3LTY5LjIyNCAzMC43Mi04Ni44MzcgNjMuNDktMTcuNjEzIDMyLjc2OC0yNy44NTMgNTUuNzA2LTM0LjgxNyA5MC4xMTMtNi45NjMgMzQuNDA3LTQuMDk2IDUyLjQzLTQuMDk2IDUyLjQzek0xNy42MTMgMTgxLjI4bDIxLjMgMS42NC0zLjY4NyAyMS4yOTktMjAuMDctMi40NTggMi40NTctMjAuNDh6TTUxLjIwMSAxMzYuMjI0bDUuNzM1LTE1Ljk3NS0xOC44NDItNy4zNzMtNi4xNDUgMTcuMjA0IDE5LjI1MiA2LjE0NHpNNzcuODI2IDgxLjMzNkw4OC44ODUgNjguMjNsLTE0LjMzNi05LjQyMS0xMS40NyAxMi42OTggMTQuNzQ3IDkuODN6TTEwNi45MDggMzAuNTQ1bDkuODMgMTEuODc4IDEzLjUxNy03Ljc4Mi05LjgzLTExLjA2LTEzLjUxNyA2Ljk2NHpNMTU0LjgzMiAxNy4wMjhsMi40NTggMTEuODc4IDE2Ljc5NC0uNDEtMS42MzktMTAuNjQ5LTE3LjYxMy0uODJ6Ii8+PHBhdGggZD0iTTIxMS43NjggMjkuNzI2bC0uNDEgNy4zNzMgMTEuNDY5IDYuMTQ0IDIuNDU4LTMuNjg3LTEzLjUxNy05Ljgzek0yMDkuMzEgNjEuMjY1djYuMTQ1bDExLjA2IDEuMjI4di00LjkxNWwtMTEuMDYtMi40NTh6TTE3NC4wODQgNjYuNTlsNS4zMjQgOS44MzEgNy43ODMtNi4xNDQtMS42MzgtNi41NTQtMTEuNDcgMi44Njd6TTE1Ny4yOSA3OS4yODhsOC4xOTIgMTIuMjg4LTQuOTE2IDguNjAyLTExLjg3OC0xMy4xMDcgOC42MDItNy43ODN6TTE0MC45MDUgMTEzLjI4NmwtNS4zMjUgMTAuNjUgMTMuOTI3IDExLjg3OCAzLjI3Ny0xMy41MTctMTEuODc5LTkuMDExek0xMzUuMTcgMTUwLjU2bC0uODE4IDE0LjMzNiAxNy4yMDMgNy4zNzMtLjgyLTEzLjUxNy0xNS41NjQtOC4xOTJ6TTE0MC4wODYgMjAxLjM1MWw0LjA5NiAxNC43NDYgMjEuNzEgMS4yMy03Ljc4My0xNS45NzZoLTE4LjAyM3oiLz48L2c+PHBhdGggZD0iTTcuMjMgMzI1LjQ4M2wuMDA2LS44OTYuMDE2LTIuNjExLjA1Ni05LjkyYy4wNTgtMTAuNjg4LjExNi0yMi42MTUuMTctMzUuNDgxLjE1Ni0zNi43Ni4yNDktNzMuNjgzLjI0OS0xMDguMzcxIDAtMTcuODc0LS4xNTQtMzMuNDgzLS40ODMtNTUuMzIzLTEuMDA2LTY2LjczLS41MjItNzkuNDQgNS4wNDgtOTEuNDMzQzE3Ljg4OCA5LjQgMjguMzkyIDYuMzUgNjAuNTUgNi4zNUgyNTIuMzJsLTMuMTM0LTMuMTM0djIyMS40ODNjMCA2Ljc5Ny4wNzMgMTIuNjYyLjI1IDIyLjU0MS42ODYgMzguMDc3LS4xNTcgNDguOTA0LTYuMzAzIDU4LjkzOC03LjE4OCAxMS43MzctMjIuNjYzIDE2Ljg1OS01My44MDcgMTYuODU5LTE3LjU4MyAwLTM4LjI2OS0uMDQtNjEuNDIzLS4xMTYtMTguNjI0LS4wNi0zOC4zNjYtLjE0MS01OC42OC0uMjM4YTQ5NzU3Ljk3IDQ5NzU3Ljk3IDAgMCAxLTYzLjgzMi0uMzQ2bC0xLjI3NC0uMDA4IDMuMTE0IDMuMTU0em0tNi4yODggMy4wOTRsMy4xMzQuMDJhMTA0NTkuMDQ4IDEwNDU5LjA0OCAwIDAgMCA0Ljk1Mi4wMyA0OTc2My4xOTUgNDk3NjMuMTk1IDAgMCAwIDYwLjE2My4zMjRjMjAuMzE4LjA5NyA0MC4wNjMuMTc4IDU4LjY5MS4yMzkgMjMuMTYuMDc1IDQzLjg1Mi4xMTUgNjEuNDQzLjExNSAzMy4xMDggMCA1MC41MjQtNS43NjQgNTkuMTUzLTE5Ljg1MyA3LjA3LTExLjU0MyA3LjkzOC0yMi43MDMgNy4yMjUtNjIuMzI0LS4xNzctOS44NDQtLjI1LTE1LjY3OS0uMjUtMjIuNDI5Vi4wODJINjAuNTVDMjYuMDcuMDgyIDEzLjYyNiAzLjY5NCA2LjYwNyAxOC44MDcgMy4wOTggMjYuMzYyIDEuNDAzIDM2LjgyMS43ODggNTIuOTguMzE0IDY1LjQzMi4zNjMgNzIuMjk1Ljk3NyAxMTIuOTc2Yy4zMjggMjEuODExLjQ4MiAzNy4zOTEuNDgyIDU1LjIyOCAwIDM0LjY3OC0uMDk0IDcxLjU5Mi0uMjQ5IDEwOC4zNDRhMjkxNTMuMzk5IDI5MTUzLjM5OSAwIDAgMS0uMjI3IDQ1LjM5bC0uMDE1IDIuNjEtLjAyNiA0LjAzeiIgZmlsbD0iIzVFMDAwRSIvPjwvc3ZnPg==;" parent="1" vertex="1">
                    <mxGeometry x="329.77" y="352.9" width="42" height="54.2" as="geometry"/>
                </mxCell>
                <mxCell id="17" value="&lt;font color=&quot;#000000&quot;&gt;internet gateway&lt;/font&gt;" style="text;html=1;strokeColor=none;fillColor=none;align=center;verticalAlign=middle;whiteSpace=wrap;rounded=0;" parent="1" vertex="1">
                    <mxGeometry x="225.89000000000001" y="170" width="100" height="30" as="geometry"/>
                </mxCell>
                <mxCell id="18" value="Private subnet" style="points=[[0,0],[0.25,0],[0.5,0],[0.75,0],[1,0],[1,0.25],[1,0.5],[1,0.75],[1,1],[0.75,1],[0.5,1],[0.25,1],[0,1],[0,0.75],[0,0.5],[0,0.25]];outlineConnect=0;gradientColor=none;html=1;whiteSpace=wrap;fontSize=12;fontStyle=0;shape=mxgraph.aws4.group;grIcon=mxgraph.aws4.group_security_group;grStroke=0;strokeColor=#147EBA;fillColor=#E6F2F8;verticalAlign=top;align=left;spacingLeft=30;fontColor=#147EBA;dashed=0;" parent="1" vertex="1">
                    <mxGeometry x="550" y="401.24" width="130" height="110" as="geometry"/>
                </mxCell>
                <mxCell id="22" value="&lt;font color=&quot;#000000&quot;&gt;port 3306&lt;/font&gt;" style="text;html=1;strokeColor=none;fillColor=none;align=center;verticalAlign=middle;whiteSpace=wrap;rounded=0;" parent="1" vertex="1">
                    <mxGeometry x="470" y="315" width="90" height="30" as="geometry"/>
                </mxCell>
                <mxCell id="26" value="" style="outlineConnect=0;fontColor=#232F3E;gradientColor=none;fillColor=#232F3E;strokeColor=none;dashed=0;verticalLabelPosition=bottom;verticalAlign=top;align=center;html=1;fontSize=12;fontStyle=0;aspect=fixed;pointerEvents=1;shape=mxgraph.aws4.users;" parent="1" vertex="1">
                    <mxGeometry x="180.62" y="67" width="78" height="78" as="geometry"/>
                </mxCell>
                <mxCell id="27" value="" style="ellipse;whiteSpace=wrap;html=1;aspect=fixed;fillColor=none;strokeColor=#000000;" parent="1" vertex="1">
                    <mxGeometry x="202.12" y="185" width="35" height="35" as="geometry"/>
                </mxCell>
                <mxCell id="28" value="" style="points=[[0,0,0],[0.25,0,0],[0.5,0,0],[0.75,0,0],[1,0,0],[0,1,0],[0.25,1,0],[0.5,1,0],[0.75,1,0],[1,1,0],[0,0.25,0],[0,0.5,0],[0,0.75,0],[1,0.25,0],[1,0.5,0],[1,0.75,0]];outlineConnect=0;fontColor=#232F3E;gradientColor=#4D72F3;gradientDirection=north;fillColor=#3334B9;strokeColor=#ffffff;dashed=0;verticalLabelPosition=bottom;verticalAlign=top;align=center;html=1;fontSize=12;fontStyle=0;aspect=fixed;shape=mxgraph.aws4.resourceIcon;resIcon=mxgraph.aws4.rds;" parent="1" vertex="1">
                    <mxGeometry x="590.5" y="310.5" width="49" height="49" as="geometry"/>
                </mxCell>
                <mxCell id="30" value="&lt;font color=&quot;#000000&quot;&gt;MySQL 8.0.26&lt;/font&gt;" style="text;html=1;strokeColor=none;fillColor=none;align=center;verticalAlign=middle;whiteSpace=wrap;rounded=0;" parent="1" vertex="1">
                    <mxGeometry x="570" y="360" width="90" height="30" as="geometry"/>
                </mxCell>
                <mxCell id="31" value="" style="ellipse;whiteSpace=wrap;html=1;aspect=fixed;fillColor=none;strokeColor=#000000;" parent="1" vertex="1">
                    <mxGeometry x="520" y="340" width="20" height="20" as="geometry"/>
                </mxCell>
                <mxCell id="32" value="" style="points=[[0,0,0],[0.25,0,0],[0.5,0,0],[0.75,0,0],[1,0,0],[0,1,0],[0.25,1,0],[0.5,1,0],[0.75,1,0],[1,1,0],[0,0.25,0],[0,0.5,0],[0,0.75,0],[1,0.25,0],[1,0.5,0],[1,0.75,0]];outlineConnect=0;fontColor=#232F3E;gradientColor=#4D72F3;gradientDirection=north;fillColor=#3334B9;strokeColor=#ffffff;dashed=0;verticalLabelPosition=bottom;verticalAlign=top;align=center;html=1;fontSize=12;fontStyle=0;aspect=fixed;shape=mxgraph.aws4.resourceIcon;resIcon=mxgraph.aws4.rds;" parent="1" vertex="1">
                    <mxGeometry x="590.5" y="432.24" width="49" height="49" as="geometry"/>
                </mxCell>
                <mxCell id="33" value="&lt;font color=&quot;#000000&quot;&gt;MySQL 8.0.26&lt;/font&gt;" style="text;html=1;strokeColor=none;fillColor=none;align=center;verticalAlign=middle;whiteSpace=wrap;rounded=0;" parent="1" vertex="1">
                    <mxGeometry x="570" y="481.24" width="90" height="30" as="geometry"/>
                </mxCell>
                <mxCell id="34" value="" style="shape=image;verticalLabelPosition=bottom;labelBackgroundColor=#ffffff;verticalAlign=top;aspect=fixed;imageAspect=0;image=data:image/png,iVBORw0KGgoAAAANSUhEUgAAAJAAAACQCAYAAADnRuK4AAAABmJLR0QA/wD/AP+gvaeTAAAOc0lEQVR4nO3de1SU17kG8Of9ZriqIKJp0ZhIvCRNao+GpA3GxOGuVtbqJdr2nMhF7T1BSOIVFETAGGMgSdtoW4OY2NWldp2e1MglMzBUTU5ibiZpG0kTpJpoKqigMgLDt/tH4ByOR2CY2TN7z3z796fLeffzwcO4Zb4LoCiKoiiKoiiKoiiKnzCJDiCroqIizZQdnHHLt6fOypy19H273c5EZ5IRiQ4go8SqtK8TQwWA+L4/ehsMubbs2sMic8lIFWiAxKpFkzT0bGEMD+L6X5uDJo3l1GXUNfs6m6xUgQCk70wPvxLa/TAxFAAYPfTfZg5i9IxDDyk9uvylSz4JKDFj74EYKHHK/MXOoN7/IoYHAAQP/yIKAmGuWevNnPqtqZczZi19x8j7I8O+A6XsSbmrVzdVENi9nk2iN0lDnjWj5gifZP7FcAVKrFo0iZhzI8BWANA4jWVEOODUabU9u+Ykp5l+wTAFit+3OCzM0ZFDDPkAxnhpmU5ieNY5qqvEvsR+2UtrSMUQBUqsTE0nomcATPHNiuxTAq23Zta+AEJA748CukAJu1PjNFAFgLmCIhxjOsutX1b3qqD1vS4gC5SyK2WibjIVct7nuIsR4YDeY1pVv+JQi+As3AVUgRbvWxx83tHxUzBshvf2Oe7qJEbbrowas/W1JfsdosPwEjAF6tvnPA0gVnSWYZwmID9Q9kd+X6DE59PuJA3lAO4XnWWE3gBRri2z5jXRQTzhtwWy/C59vKm7awNAP4f//kadEeFFk4Y1tUtrz4gO4w6/K9CAfU4xgAjReTi5QoyedOLq4/Zs+1XRYUbCrwr0xT5HqwDYLaKzeMkpAgr8aX/kFwVKrlowW9d7y4lonugsvkAMr/ea2MqGjLrXRWcZjtQFSqpKigYzbfTzfY67dCLsdeqm1fbsQ2dFhxmMlAWK2xkXNDZ0/M/AsAlApOg8gkm9P5KuQH2/zykHMFV0Fsn8g4AN1qzaPaKDDCRNgZL3JH+F6abtABaIziK5Br0XeQ3La4+LDgJIUKC036aNc5pZoUH3Oe7SibCXdTtX2X5o+1xkEGEFGrDPKQIwVlQOP3eZGG0PukRbqnOqu0QEEFKg5Kq0ZPbFZTN3iFg/AH3EGOXXZ9fs9/XCPi1QamXqbbqG7YzRQl+uaxhE9QDybJk17/lsSV8sMmCf8zMAZl+saWA6EfZqxB6ry6j7p7cX82qB4nbGBUWFRGczUCmA8d5cS/l/LjLC4yHtWoU390deK1ByVVqyzlBOwFe9tYbikibGqMBb+yPuBUqqWjgDrHc7gEW8ZyvuY4BNY6Y8a/ah93nO5VaguXu/GRXa7VzDCHlw6QpPRQAnQM8H61RQvaz6HI+BHhfI0mAxm1uCl+mgEgIm8AileBcBF3TC1uiwiPL9S/Z3ezjLfSm75yfp0MsBmunJHFcQERJiLUiMtWBG9HSMDR0LjTQ4nA6caj+N0+2n8e7Z4zjccgSXuuW+pu/aY4kIiUBHVwdOtDahodmOhpONYMwHpwMRTgDsMVtm3UH3R3ggaXeaT056mjgmBoWWAkwdN/znqw6nA3/820t48fhedPV69MPlFa4cy0dtf0dxYynOXPLNWa62rFq3eyD6mqlhTRwTg2cXVrhUHgAIM4fhBzO/hx3pv8SUsTd7Od3IuHos06On4RcLKxAzJsZHydwndYE00lBoKUBk6MhPCZocORlPzd+GGdEzvJBs5EZ6LJGhkdg4Lx9Ewj/vHpLUBbLEznP5ned6IkIi8HhKCSZH3sgxlXvcOZbp0dNgmSL31UpSFygpNsHjGREhEXgi9XFMCBf7i3B3jyWBw9fAm6Qu0PTo6VzmTAgfj7LkEowOHubudV7k7rHcyulr4C1SF2isG3ufwcRGTUGhpQBmTcxnue4eS1RYFOckfEldII34xpsdMwtr5j4mZGPq7rHw/hrwJnc6L0iIteBHcStExwgYhisQACy+47t44PbviI4REAxZIAD48d0/RMrUJNEx/J5hC0QgPDonD3ET7xQdxa8ZtkAAYNbMLn/GplyfoQsEAOFB4ShLKsaXR39JdBS/ZPgCAUB0eDS2pm5x6zM3o1MF6jNpzESUJhUj1BwqOopfUQUa4Lbxt6Jg3jqYSF1h7SpVoGvcc+M3sPKeh0TH8BuqQNexcMYC/MfXfiA6hl9QBRpE1uwMLJieJjqG9FSBBkEg5MWvxL03zREdRWqqQEPQSMP6+9fijhtuFx1FWqpAwwgxBaM4sUiK02JlFLAFOt3xKbdZkSERKEvaLP3JXSIEbIHWvpKP844L3ObFjInB1pQyjAoexW1mIAjYAp29fBZrXlmHK91XuM28JSoWRZYNCDIFcZvp7wK2QADQfOEkChuK0dPbw23m7JhZWHXvoyDx9yeVQkAXCADePXsc245u53qteWKsBcvjsrnN82cBXyAAqG+2Y9fblVxnfv+rS/Dd27/NdaY/MkSBAOD3H+zDH/76n1xn/uSuH2HelPu4zvQ3hikQAOx489doPHmY2zwiwrr71mB2zCxuM/2NoQrEGMOWw1vxzpl3uc00a2ZsStiIqeMC9RFmQzNUgQDAqTtR2FCMj89/wm3mF6fFbsaXRt/Abaa/MFyBAKCzpxPrbRvw+WV+t1GODo9GWVIJxoTI9rRx7zJkgQCgrbMN620FXG+Hd/PYm1CWtBkh5hBuM2Vn2AIBQMvFf6CwfhO6Od4K7ysTbkP+/eukv6adF2Mc5RDe+/x9lDSWQWc6t5lzJt+DHIOcFmv4AgHAq6f+G8++/kuuMxfNWIjvz/we15kyUgXq86cTL+P3H+zjOnP5nVmYPy2V60zZqCfnDLDrrUpEhUYhbVoKl3kEQm58Dtoc57nMk5F6BxqAgaH8tafx5mdvcZtp1szYaMnnNk82qkDXcOpOFNtL8FHb37nNDDOHcZslG1Wg6+jscWCtNR+fcjwtNlCpAg2i/Wo71lkLcIHjabGBSBVoCJ9dOoOC+kI4nA7RUaSlCjSME61NKGksQy/rFR1FSqpALnj99DFsO7IdDD55OJFfUQVykfWTeux590XRMaSjCjQCLxzfiz9++JLoGFJRBRqhX72xA0dajoqOIQ1VoBHSmY4th7fig3/+RXQUKagCuaGrtxsb6zfhVPsp0VGEUwVyU0dXB1bXrcO5zlbRUYRSBfLAuc5WrLcW4LLkT4n2JlUgD3nj+nt/ogrEwfGz7+GJo0/65lnvklEF4qShuRG/eWuX6Bg+J3WB3D3RnecJ8iOx7y8HuF9/L+pYXCV1gS5evejW63jemWykdhz7NV752MZtnshjcYXUBTrR2uTm605wTuI6Bobtr5bjrc/e5jJP5LG4QuoCNTTb3XxdI+ckI+PUnShuLEXzhZMezxJ9LMORu0AnG0d8bnJTWxMaW/7spUSuu9J9BeutBWjtbHN7hizHMhSpC8QYQ3Fjqct7oYtXL6LYXirNf6fPdbbioZdz0NQ28n+KZTuWwUhdIAA4c+kMHj6UN+w7UVNbEx56ORdnL3/uo2Suae1sQ86hR/DcsZ1ov9ru0mtkPZbr8ehWo0m703z240FEsEy5HwmxCbg1ejoiQyPRfrUdJ9qaUP+JHY0tf5b+p9WsmTFncjzunnQXpo6LxfjwCRgXFgWd6bjguCDsWGxZtW73wNMCVQLIgB+8kynXpQPYY8uqdfuWsx59421ZtdlMx90A+N14UPGVN0A015PyAB6+Aw2UWJmaTkRPA4jlNVPxitME5Fsza18AeX6VANfbrcfvWxwW5ujIIYZ8AMa615v8OonhWeeorhL7Eju380+8cr/+lF0pE3WTqRBgK6D2R6IxIhzQe0yr6lccauE93KsPfEjYnRqngSoAzPXmOsqgjjGd5dYvq3vVWwv45IkhffujZwBM8cV6CvuUQOt57XOG4rNHzqj9kU94ZZ8zFJ8/syixatEkYs6Nan/EFSPCAadOq+3ZNZ5/gjsCwh56lVQ5/25GKCewe0VlCAz0JmnIs2bUHBGyuohF/wcDJe6e/wBpbBsYbhaaxf98RmCb5p6c89uioiJhpy1K8di99J3p4VdCux8mhgIAo0XnkRtzEKNnHHpI6dHlL10SnUaKAvVLrFo0SUPPFsbwICTLJomDJo3l1GXUNYsO0k/Kb1JiVdrXiaECQLzoLJJ4Gwy5tuxa6T5zlLJAAP53f0TsSQA3iY4jyBkCK4oKj9y1f8l+KW+RJm+B+qTvTA93BPesZqSvBihw75f7f3UDbEew2bSh+sHqDtFhhiJ9gfpZXlxwo7lXLzPA/ugg6b0rrcus/J6I50V+941I2JP6DU1HBUD3iM7C2TsMLLc+q07us+iv4XcFAgAwUHJV2lIGbAXwZdFxPNQKQsm4sIhfyLrPGYp/FqhP6p7UUXqvtooRWwMgVHSeEeoB2HP+sM8Zil8XqF/q86mTdROVMoalorO46CCDllufVf2x6CCeCogC9UuunG9hxMoByPog97+B4RFbdm2N6CC8BNSn4dbsGvt9J+PjCMgEINNFVW0g5I4Lj5gZSOUBAuwdaKAB+6O1AEQ9RrkHYM9Rl77R+mOra1cV+pmALVA/ywtp08w6yhjDYh8vbYWurbQtq/6rj9f1qYAvUL+kqrQEAOVg+DdvrsOAD0HskfrMumpvriOLgNoDDcWWWdtwX3P8nV7cH50HIVe/uWumUcoDGOgdaCBLpWWsGSFrGSEXnu+PegCq7A0Oyrf/+58Md9NoQxaoX0plynSmaaUe7I+sOpDbkFVr2OceGLpA/VJ2z0/SwZ4C8DWXXkA4QQyPWrNqX/ZuMvmpAvWxNFjM5pbgZQy0GcANg/y184zwRHRYRPn+Jfu7fZlPVqpA15i795tRod3ONYyQByC474+dAD0frFNB9bLqcyLzyUYVaBCplam39RI9BQAmxh6py677UHQmRVEURVEURVEUxej+BWQEq3Rs5IhUAAAAAElFTkSuQmCC;" parent="1" vertex="1">
                    <mxGeometry x="173.62" y="339.99999999999994" width="61.24" height="61.24" as="geometry"/>
                </mxCell>
                <mxCell id="35" value="" style="endArrow=classic;html=1;exitX=1;exitY=0.5;exitDx=0;exitDy=0;fillColor=#000000;strokeColor=#000000;entryX=0;entryY=0.5;entryDx=0;entryDy=0;" parent="1" source="39" target="40" edge="1">
                    <mxGeometry width="50" height="50" relative="1" as="geometry">
                        <mxPoint x="250" y="420" as="sourcePoint"/>
                        <mxPoint x="300" y="370" as="targetPoint"/>
                    </mxGeometry>
                </mxCell>
                <mxCell id="38" value="" style="shape=image;verticalLabelPosition=bottom;labelBackgroundColor=#ffffff;verticalAlign=top;aspect=fixed;imageAspect=0;image=data:image/png,iVBORw0KGgoAAAANSUhEUgAAAlkAAAGvCAYAAABo28DeAAAAGXRFWHRTb2Z0d2FyZQBBZG9iZSBJbWFnZVJlYWR5ccllPAAAA/NpVFh0WE1MOmNvbS5hZG9iZS54bXAAAAAAADw/eHBhY2tldCBiZWdpbj0i77u/IiBpZD0iVzVNME1wQ2VoaUh6cmVTek5UY3prYzlkIj8+IDx4OnhtcG1ldGEgeG1sbnM6eD0iYWRvYmU6bnM6bWV0YS8iIHg6eG1wdGs9IkFkb2JlIFhNUCBDb3JlIDUuNi1jMTQ1IDc5LjE2MzQ5OSwgMjAxOC8wOC8xMy0xNjo0MDoyMiAgICAgICAgIj4gPHJkZjpSREYgeG1sbnM6cmRmPSJodHRwOi8vd3d3LnczLm9yZy8xOTk5LzAyLzIyLXJkZi1zeW50YXgtbnMjIj4gPHJkZjpEZXNjcmlwdGlvbiByZGY6YWJvdXQ9IiIgeG1sbnM6eG1wTU09Imh0dHA6Ly9ucy5hZG9iZS5jb20veGFwLzEuMC9tbS8iIHhtbG5zOnN0UmVmPSJodHRwOi8vbnMuYWRvYmUuY29tL3hhcC8xLjAvc1R5cGUvUmVzb3VyY2VSZWYjIiB4bWxuczp4bXA9Imh0dHA6Ly9ucy5hZG9iZS5jb20veGFwLzEuMC8iIHhtbG5zOmRjPSJodHRwOi8vcHVybC5vcmcvZGMvZWxlbWVudHMvMS4xLyIgeG1wTU06T3JpZ2luYWxEb2N1bWVudElEPSJ1dWlkOjVEMjA4OTI0OTNCRkRCMTE5MTRBODU5MEQzMTUwOEM4IiB4bXBNTTpEb2N1bWVudElEPSJ4bXAuZGlkOjdDNkU3MUQ5QTUwQzExRTk5RTBCOTFCODRDOUI5NjRDIiB4bXBNTTpJbnN0YW5jZUlEPSJ4bXAuaWlkOjdDNkU3MUQ4QTUwQzExRTk5RTBCOTFCODRDOUI5NjRDIiB4bXA6Q3JlYXRvclRvb2w9IkFkb2JlIElsbHVzdHJhdG9yIENDIDIwMTcgKE1hY2ludG9zaCkiPiA8eG1wTU06RGVyaXZlZEZyb20gc3RSZWY6aW5zdGFuY2VJRD0idXVpZDplZGRmZjc1ZS0zZjE4LWM5NGUtOThkNC1kMzJmOTc3ZGM0YzgiIHN0UmVmOmRvY3VtZW50SUQ9InhtcC5kaWQ6MzY3ZGQwMjUtY2JhYS00MTFiLWE1NDktYTFkZDBjNzAwZThlIi8+IDxkYzp0aXRsZT4gPHJkZjpBbHQ+IDxyZGY6bGkgeG1sOmxhbmc9IngtZGVmYXVsdCI+bW9ieTwvcmRmOmxpPiA8L3JkZjpBbHQ+IDwvZGM6dGl0bGU+IDwvcmRmOkRlc2NyaXB0aW9uPiA8L3JkZjpSREY+IDwveDp4bXBtZXRhPiA8P3hwYWNrZXQgZW5kPSJyIj8+g6whIAAAVJJJREFUeNrs3QecHWW9//HfnLO9J7vJbnpPNo2EFroUuQKKIhoVC8S/XSzX3rj2a694bVfFa7DLqiiIFUVQaiCQhLAJ6XU32d7bOef/e+acQAhJdubUOTOf9+v1OHE5M3v2mTkz3/PMM89jCQA41Lh67SRdvELLpVpWapmhJRSwaoho2aPlES1/0XJLc9OaTo4OAMeyqAIADsJVvS4+qeV1WgqpkWcY0vJdLZ8ibAEgZAFwE7BW6+IHWqqpjZM6pOU6DVp/pioAGCGqAMBJAtaHdHELAcuRyVru0Dp7M1UBwKAlC8CJAtY7dXEjNZGU1zQ3rfkp1QAQsgDg2IB1ri7u1hKmNpJi+mmdoUHrcaoCCC5uFwI4NmAV6OJ7BKyUlEi8MzwAQhYAPOWVWpZSDSk7XwPr5VQDQMgCgCPeShWkzfVUARBc9MkC8JTG1WsbdHGQmkibUS01zU1rBqgKIHhoyQJwtPOogrQyA7eeSTUAwVRAFQA4ysKk1rIsidXWa5kkseJi/9RGTP+04SGx2lu1HE52K4u0/JNDCyBkAQi2Wtc5pLRMostOl1ilP8crjZn/mT5brK4OCW96WGRk2O0mJnBYAcHE7UIAyX/xKiqWyKnn+DZgPSNs1UyUyGnniIRdfzct5bACCFkA4Ep07iKRkuBkiFhZhURnz2fHAyBkAcjk2SMs0fppwQuWU2bYfdAAgJAFICNMXywJB3BQ+KJikcIiDgAAhCwAmQobwQ0asaJi9j8AQhYAAAAhCwAAgJAFAAAAQhYAAEAWMeI7gOyIRsXqbLOXtnBYYhPq3A2H4JVtAAAhC4BXmClprLbWZ/wsNmW6RBavzPk2zNhX0cUr2EkA0orbhQCywurrefYPe3s8sQ2rt5sdBICQBQAAQMgCAAAgZAEAAICQBQAAQMgCAAAgZAEAAICQBQAAQMgCAAAgZAEAAICQBQAAQMgCAAAgZAEAAICQBQAAQMgCAAAgZAEAAICQBQAAQMgCAAAgZAEAAICQBQAAQMgCAAAgZAEAAICQBQAAQMgCAAAgZAEAAICQBQAAQMgCAAAgZAEAAICQBQAAQMgCAAAgZAEAABCyACCTYkXFz/5hcXFebgMAnCigCgBkQ3TZaWK17NeUE0t8xQtJtGF6Xm4DAAhZADwjVlImsdkLfLENAHCC24UAAACELAAAAEIWAAAAIQsAAACELAC5Njoa2D/dGh1h/wMgZAHIUNAY7BeJRoP3h49puBwZ5gAAQMgCkCGRiFiHDwbvpHn0GFsAQMgCkAnh7c0iQbp1NjQooZ1b2fEACFkAMh86wuvvF2twwPd/qtXfa/+tQn8sAA4x4nvANK5eW6WLidQETqDKdfjo65HwA3fZU9PEaieLFJfYU9X4gulzZlqv2lufORUPABCyoKGqQhcv03KVlnO1TKJWkIkwEjqwR8QUAAAhy+fhqlgX79XyPi0TqBEAAAhZSD1gLdLFLVqWUxsAABCykJ6AdZYu/ii0XgEAkFM8XeivgLWIgAUAACEL6Q1YRRK/RUjAAgCAkIU0eo/QBwsAAEIW0qdx9dpyiT9FCAAACFlIIzMOVi3VAAAAIQvp9SKqAAAAQhbS7xyqAAAAb2GcrDyX6I/VkMy6seqJEpsyXWIVlRq3w/6plLExsXq6xDqwR6yBvpQ3Fystl9i0mRKrmqCfGB99ZKJRe9Jj6+A+sbraU9tWOCzRKTPicxcWFYtYlj/qyMxVODwkVlurhFr2xecyBABCVmC4H7IhFJLoouX2RdGvYjUTRWbMkdCOZgnt3p58DtFtROcv8U9oOLaeqmpE9DiwNECEmzckFSJildUSWX6GSEmpPw8m/ftidfUSmzlPQhsf0mDaJwDg6HJLFQQvKEcXLvN1wHqKBqPovMUSnTY7uYCldRRdsNS3AesZQalhukQaT3G/XkmZRFae7d+AdfTfWlYe/1tNSx0AELLwrAtFVY1Ep84M1N8cnd8oUljkMroWaMBaEqxjQ4NWrMbdQ6rReaZuC4NTScUlEp2zgBMJAEIWjnMhnTI9eH90WAPTJHfd1sztISkoDN7x0TDNVb3GJjUEro6i9dMC0boJ9xpXr63X8hMtC6kNELKCGLLKK4P5h5dVUE9O/u4K5393rLTM7t8XOCZ8c8sQx3eTlldr2aRB68taqqkSQhaCdoEIYnhwe7vQT09bZurvLiwM7MfI9fEE39NA9WZdvODIp0PLe7U8aX6uhWstIQsAACQRsObr4ivH+U+TtHxXyyP6mouoKUIWAABwHrBM8++PtZSf5GUrtPxDX9ukZQ61RsgCAADj+4iWsx2+9qVantCg9TEtdOwjZAEAgOPRoHS6Lj7mcjUTrj6pZYOufx616G+M+I6TstoPiTXQ/9T/j1VPiI8SnofbyGg99XaL1d2hbyzx/krL4sNA5OE2MmZ0REKHDj49qryZimfyVHdTFXllGyBgrV5rRuD9aQrXUTPMw926na/q8r+am9YMU6uELAQpYLW1SHjDumN+aEnk7Ivjj+/n0TYyanhIwg//+1lT0kSWniqx+mm538ay0yU2eUrOqym86WGxOtufFZ7tKXmyuY2NDz9rrka32wDU57QsSnEb5m7S+7RcqmHrFRq0tlKt/sLtQpw43AwOPvuHZsLcocG820ZG68m0sB1nzr+jW95yuo3+Xo8cTwPP/uHxfpbpbQylvg0EmwaiVbp4Rxo3uVLiTyBeR+0SsgAACGrAMmNg3ZSB66d5OnGtbv9bWhiIjZAFAEDgmEFGl2Vw+9dr+acGrSlUNSELAIBASASfG7Lwq8yQEOv0951KrROyAAAIgs9rqcjS75qq5R4NWldS7YQsAAB8S8POmbpw1TE9Vjsp1UnUTT+t3+nvfid7gJAFAIBffd5VwKqqkcgpqySy6jkSq56Y6nX6Rg1an2QXELIAAPAVDTiX6uISxytYlkQbV9jLWFmFRE47R6LzFqfaqmWm4vmGFos9QsgCAMAPAcuEms+5WSc6fY7EKiqfGbpmzZPI6eelOoCyGZvrR4lJqUHIAgAgr12txfl0AEXFEp2z8Lj/KVZZLZEzn5PqDAymX9jNBC1CFgAAeSvRivVRN+tE5y46+TyY+t/MVFfReY12C1eSXkXQImQBAJDPLpP4lDeOxMorJDplhrMwNmu+RE45U0NXYSpB63v00SJkAQCQjz7i5sXRue5ap2K1k+1+WlJSmuz7e52Wr7GbCFkAAOSNxtVrNf3IBY4DU1WNxCY1uP49pvVrzHSIr6hK9q3+p77XD7DHCFkAAOQLl61Yi5L/TcUlEjntXIlNnJTsFr6gQetadhkhCwAAT9PAslgXz3f6ersVK/mAFGc6xK9YJbG6+mS3cJO+7wvYe4QsAAC87B1uXhydPT89v9WyJLL8DIk1TEtmbdOD/rcatOax+whZAAB4joaUanExR2GsvFJidQ3pewMmaC1emWzQqpX4XIcV7ElCFgAAXvMaiU/M7IgZyT3tjgStSUkNWrpU4qPCM7QDIQsAAE95o+NXFpdIrH5aZt6FCVrLTku2r9dLtbyHXUnIAgDAExpXr12lixVOXx+dOjOVUdudBa1TzrA71ifh8/r3nMNeJWQBAOAF/89NAIpOm5WFq3Q4/tRhabnbNc3cPj/XoFXDbiVkAQCQMxpGinVxjdPX2wOPFhVn580VFklUg5YUup6Cx6TAb7F3CVkAAOTSlVoct/pEp83O6puLlZVLZNkZydyefJUGyGvYvYQsAABy5VXOA0+FxCbUZv0Nmt8ZXbA0mVW/pUGrgV1MyAIAIKsS40o5H+F9yvScvdfo9NnJjKE1Ucs32dOELAAAss3cKixx9ErT4b1hek7fbGTRKfYgqC69VMPkS9jVhCwAALJptdMXxmpq7fGxciocluiy0+wnD126UYNWObubkAUAQMZp6CjSxfMch6zJUzzxvk1LVnTBErermSa4T7DXCVkAAGTDBVqc3Xsztwo9ErIMM05XrHay29XepcGykd1OyAIAINOudPpC+1ZhYZGn3nyk8RSRAlfjZ5lBSr/IbidkIcdipWXH/SYnJaUutlF6/G2UZncbGa2nsnL9JD37o+SmY6pXtpH146msPC+3AV+53PGxU1fvvXdfXCIR98M6vLBx9doL2fWZV0AV4GQnlMjKs8Tq73sq2MSqJxz/InXCbTQcfxsl2d1Gxk9yZ5wvVleHvtnYU4HHVTO+V7aRyW/cy06X0OEW/UckcfYpcH3rxSvbgD9o0JhqFnkdsiQ+pESsZa9Yne1uVvuK/v1nNjetiXEkELKQqw/vxEnJzgLvuW1ktJ4qquzih21kjJkaxEyo64dtwC8ucfzZMgOQlpZ59g+JLlwu4Yfu1n9Ena5yupartNzKYZA53C4EAATVRY5DVu0kT/8hsfIKic6Y63a1jzeuXmtxGBCyAABIt+c4DjE5mEbHrejs+W4nrV6p5YUcBoQsAADSpnH1WjPVzAJHLzb9QGvqvP9HhQskOmeh27U+wNFAyAJSoqdIKgHA0VY5faHdz7EgP7owm/6Gpv+YC+dp4Dybw4GQhXQYGeHvdiIyFsx6cvN3B/VYMqF9ZJhzSf47y3HIqp6QRwenlUxr1vs5HAhZSMfnr687oH93j7vX9wa0nnqd15M12P/0MAiBCuwasEaDGzB9xHlLVj6FLPN+66e6HR/vqsbVa6dxSBCykOpF9OC+p8ZQCtJF0WprdVdP7YdEhoeCd3wc2OP8xdGohFr2Be+kaeooxu1nH1ju+JVVE/Luj7M7wTtnZpp+I4cEIQupXkT7eyW0e1ug/ubwlo3ub/9pgAg3bwjUxdQcF25b/EI7tog1NBCwz892TiR5rnH1WjOY3AxHLy4o9PT4WCcSmzzV1ewcJmRpvTB2JiELKe90vTCGdjT7P0CMjUp408NimdG9k7mgth+S8MaH/X9rSI+D0M6tEtre7H5drZvwI/eJ1dPl/4DV2Sbh9fcHt7+evyxx/PGoqMzTA9aS6PQ5btYwo98/j0MjvXyTWjWBm8cpZmsxg5kEaXC1hqSC1q5tEmrZL1H73r15cibsn4vh6KiIXvRDrQfsoJXSttpapOC+9vi0K2Yqn8JC/xw5kYhYfb1iHTog1mAKrVFDgxJe9y97+h4zYGOsuCQ+t6QfRGNiDQ/at5tdTllytNl6froogNeXXi27m5vWtHnwvTme7M8+P+br4Tttpv0FysUXg9douYNolMbrUZ4Hq3m6eL2WF7n50AAAsma/lj9r+ZEGrns8cu34ojh8oi66aLmGlVl5W/mh5g3xfoTODGqZrPupj8M2PfKyJUs/IGY2V/MhebUEq9UKAPKNeWrtdaboufs+Xb5TL+LrcvyeZjt9oZlkPZ/FzDydzkOW6cR1tZYfc9imKeTmYcC6QhebJN6sScACgPxxjpYH9Dz+kRzPmed8hvCSsryu8FhVjdtJ41/MYRrQkKUfStNydbuWiew6AMjb685ntHw3h0FrtqNXmel03D2h582g1eBqCKzLdL+UcJgGLGTpTr9MFzcLT0QCgB+8Sct/5+BaYmZQrncUTkzA8sFDHFEznINz5v7opRyeAQpZ+qEwH4ifErAAwFfMbcNsX9BrHb+yqNgftaxhMVbj6gbQFRyaAQpZ6nOuPhgAgHzxv1keBNN52igs8k0lxya5Gu2HlqyghCz98JnR1K5jVwGAL83V8qos/r46x8HELy1Z5m+prXfz8oV67Z3OoRmAkKVeK/F5lQAA/vSGLP4u53dF/NSSVVbudnqg53JYBiNkvYDdBAC+dl7j6rXZemrc+Tw5YX99vzezMrhwLoelz0OWfujM14hT2U0A4Ptr0Wmeu+6F/TVfcmyCq67NZ3FYps7rR9CcpIKgmRizYbo9NkisXL+0hHw0L9/IsEhPp4T27hSrtzu1D1z91Hg9mYHqfHQyscyEzmbuwv27xOrqSP3EVD1RotNniVSZuQv9c/vAzGdm9fdKqGWfWGaex1QmDC8qluiMuUfNXeiTB4FjUbGG4nMXhvbtFBlNbS5Mu55maj1N9HE96bkpyTlDF2j5WxberfOROUP+eqDdnMtcWNa4em15c9OafqKSf0OW+1Hg9CIYWbHKHuXWj2IFusvKyiWi4chM/GlP/ul6rxdIZNnp9onet3VUWiYRDZGhfbsktHVT0tuKzl9iXxT9+ekvsC/0ET0OrCkzJbzxIb04jrmvb13fHE9me748nvScEqus1qA9W8IbHhKruzO57dRO1no6zXetI8+qp2mz4vWkX3RcqvTc3xTyWXdgDfmmb5Y14Cg3mT/etC7eI0iav2K6ZUnklDN9G7CeFQDmLExq4tLIkpW+DVjPqiO9MJp6SmrdWfP8G7COvZhMqJXI0tPdr1deqZ+5M3wbsI77BS6JaVZMa3Fk+em+DVjHXsgjK86yx2ZyKVvz1wR7OraqCW5evZSYlOJ3WV9dKOqnSqx6QqB2YHReo4Ra9tu3fpy2OsTqGoJVR7Pmx2ehHx5ydUFNNpzl7efH3OqrnSxW+yHndTt/sa9ux49/xiyU6NxFEt683t0xGLR6Kiy0Pz+hJx7z5KHuPI3FJOa3z3lltVgt+5y+fJmTFzWuXmsabMwYETO0mOHlTeevCUeVmsTSJO+SRDHM6PKFR+2XI31gzAWtT4s5aXceUw5rOaDFzHq9p7lpzSAhK1sXU3dTB/jmpG8ujtahg84+YJOnBK+OQiGJarA0fbQcH0t19cG6KB75u+unSdhpyDLHXkBaRJ/xGTKDOpq+OtGo48ARxHqKTpoioeYNqfX1y7Ukbp97/vh1N1n0sqOClJkAcX6iLJL4+GbTE8V8c8/JCVPfV0cicD2hpVnL5sRyiwaw0VzXt7/arssqJIhipeWO279jAa0j04+NYym99WSPuWMF8M5LOCyxohKxhgYc1lNAjyVzC9kM5ummBTk7uiTAXIasszTErE8EK68eyBMTZeUxPx/R9/6oLtdpeUDLgxq6mglZqRw8oYBObejm7w5C35njHRsFhZmrU46lYAYIx6EsuFOuxqxQfneAikT8t1MKC+Ph1zypPr6S44SXfGEeBV+VKNebH2joatXFP7TcaYqGrp2ELAAA0sf5uC5jI/4Mv6Vl8eGAgsf0G7smUUzoMrcWf6flNi33a+hK+73tEJ83AECAtDt9oTXiz5AlJWUcBXFLtHxYy71admvo+oKWFen8BbRkAQCCxHlL1qiPW7I4Do5lnoz8gCkatMxjsd/R8rPmpjW9qWyUliwAQJA4bskSv95SKy7hKDg505r1XS0HNHD9j5Y5yW4ouC1Z0aiE9u8WOfKEkGXZYwTFJtTl3zYy9nUnFh9faqAv8QN9bzUT44+w59s2MsyMLWV1tj39uHpZhUSnznT19J1XtpGxOhrsF+vg3qc7E4cL4oPpujjhe2UbGa2nAX1/LUe9PzM2l3l/prNynm3Do/QDIubR/sLxj5UB8SNfTQ+WWeaJyrdreasGrSZdfqq5ac1mQpYDZsyk0JPH1NXenTJ23qWOTyJe2UbGTvaHDkhoy8Zj3tsOiZx1YXxOyFS2cfZFjoeTSMc2MhseBiT82IPH2bkhiU6ZkVfbyOhn7vH1z5pqxertio8OnmfbyGg9bXpYrL6eY95ftz2bRb5tw4v0IhnVC6YZV2neuC82czCasbL89iQtIcstMwbYK7S8XI+dn+vyBj2Odjn6HAW2yoYGj9ti4uqJC69sI1Ph4USdPl10Bj3hNoaHs7qNrB9LJ/u5l7eR0eNpOOV96JVtZLSejjf+lst96JVteNgux/Uw6MP5kYs8ELLMFFNmaJ1ji7eHzzG3BF5lsrqGrc9oGbf5m47vAICgcRyyxISsympf/fGxdM6hqaHIns+zuFjDW4n+W3NHYbHETJArTBQzGb35nXYJO+u+YFoQoxGxTGvi6Kj9EIL9BcmU4SH9EjBodyGxl9mfVcDcZvqIxFu23tLctOZOQhYAAHFPOn2h1dsjMb9N2ea2tcgEKdM1o7zCXtqzPWgxs41krFuLfYtWw9lR2z9ulDJ3fkwQNn0ITegyt7h7uuw+hVlgRsL/mwatr+nyQxq2RghZAICg2+g8ZHX7768/ybysdqtUZZU9/Y6ZTFrKK/Vnpd6dQss8LGYCoAl/9lijCWOjdt9Lu3S2i9Xd4Xy+UffereVsDVsv0aDVQsgCAATZhkCHrCN5qahYYlU1WiZIrLomHqrcTkHmVYkJ7O3J2WcvsJ+Stbo0bLUf1tKaiSdHz9HycCJoPfBUnuWzBgAIEr0I7hOnE0WbAUn90+E/LlwgkXMukbHz/8N+WjQ6e3582CC/BKzj/s1he3ik6MKl9t8eOfMCic6aL2Ja6dLH3Fe+W4PW65/KenzcAAAB9IiWS5y80LSAxBqm++qPt/tVBZhptTMlOq/R3r9mvErrcEs6bimaRzd/oEHrdF2+i5AFAAiiex2HrE7/hSwcFbhqaiWixbRamrAV2rszHVMqvVXLUkIWACCI/u30haGOwxKlvvyvsEiisxdIdMZce5aR0O5tqU6tFKJPFgAgiExLlrPsZMZlGuinxoIiHNagNUfGzrlEonMWnvRpzHH8gpAFAAic5qY1Zs4g508ZtrVSaUEMWxqy7KnkJrqeT9gE+FsIWQCAoPqT45B16CC1FVDmIYHIyrPtscNcuEuD/CFCFgAgqP7gOGT1dPpvKAc4ZsbVOnbC9HH8zPwPIQsAEFT3idPxsswFk9as4Ias/bvdvHxMy28JWQCAwGpuWhMRV7cMD1BpQTQ2ag/t4MJf9djqIGQBAILul45DlpkHz4/T7OCk7HGzImNuVvnJU+tSfQCAAPujFsedbVzeNkK+MwOUmpDlXLuW3xCyAACB19y0xow2+Wunrw+17nfbqoE8Ftr1pH270IWb9JgaImQBABD3c8evjEQkdHAfNRYA5olCl32xTBr7xjNCGtUIAAi4O7XscPri0J7tIrEYteZzoSc3u50w+ubmpjX7CVkAACTohdFcSf/X8QpDgxJqoTXLz6zDLWK1tbhZxTyp+vlnBTWqEgAA+ZHEb/c4uwjv2kZrll+NjUl46ya3a/2fhvVthCwAAI5hpkDRxa8ch6zBfrFa91NxPhTa/oQ9KbgL5sUfP+62qE4AAGxfdHUx3rmV1iyfsToOu+3sbtyoIf0AIQsAgBPQC+UGiY+b5eyCbJ4+27eLivOL0VEJP/GY27VMuPrsCYM4tQoAwFM+7+bFoV1b7QErkf/Cm9e7vU1ovEvDeQ8hCwCAcegF825d3O14hdFRCW1vpuLyXGj3NrHaD7ld7S96vNxy0u1StQAAPMNHXF2gD+4Vq6eTWstTVvthCe3Y4nY1M1PA28Y9NqheAACe1ty05t+6uM3xCrGYhJ7Y4HbgSnghYA30SfjxR5J5gOGG4w3ZQMgCAGB8pjXL8ZXX6u+1bzkhj5jJnx970O3chMa/tHzNyQsJWUDKX4V8tA1wQHFA2Zqb1pjRKL/nZh0zmbDV08UhnA8iEQk/+oD9hKhL3VquTcwSQMg6kVj1xGf/sKhYYqXl2d1G1YSUt5GxOqqoevYPw2GJlZWnvo3yiqxuI6P1VF4pUlDgbN/mYhvVE7xRT5XVjn6W8W1UHGcbVTUeOjdNSPn9HXcbLo+DdGzDB27Q4ryzlbltaJ5Qi0QIMZ4OADEJb1wnVm93Mmu/SQPWLqcvLghsHU+eIpEzL7DnoIp/abPiJzK9eGd1G/VTJWJCSwrbyFgdTaiVyFkXigz0P/XF1r5AFZekvg0NktncRkYVFsnYWRfFP7BH7utrSI5VVKa2DT0u7OCUzW1k8ovj0tPE6mp/+gJkgvKEuuxvY9mx2yiwjzHPfMFefsYz358G51hNbV5uI9/pxbS9cfVac9vwO07XsfQ8Fdq6SaKLVxBmvBywOg4ns/Z39Jj4lZsVCgJd1+YbsMtvwV7dRkZbaVK8SHtlGxmlwTPmInx6ehuZEgpJbOIkf2yDegqSn2j5tBbHad48bWgCaWzKdGrPiwGrrTWZtR/U8i63KxVQ6wAAPFPj6rXm28qbtHzYTcA6Irxlo0Qqq47f3QHZF43EA1Z7Ui1YLVpe2ty0xvWos4QsAACeDlem49n1Wt6hpT6Vi3powzqJrLpAr7SFVGwujY1JeMODYnV1JLO2GQL+Kg1Y+5JZmZAFACBcrV67Shdv1vJKLaVp2eiEiXafP+SONTRgD9Ng9fclu4nrNGA9mOzK7H0E44MmMSoh3WL88cj7YDVNF6/Wcq2WZencdnTmXInOX0Il5/K839Mp4Q3rREaGk93Eu8ebNidQIcsaG9VTX2nwjiQ3A6klf7DlN7d/t/vB6YJ3LI0G9Fgy55oRF10zRkeDW08R7/3tGqxM8rlKy4u1nCnpHhAsFJLowmUSnTqTlJNDoQN77Kc8UxiF/wsasL6e6vvwV8jq6QpkJ0M3g9/ZdRTAJ4bcDhAY1AEFrW4Xx5IZUsOEsqD1NzHDrbgI7WbaDtMn5HhjmPn6WBrs90TA1FBVpotztVyWCFbzM/W7YqVlEl16mqfGXQscDVWhLRvtJzxT8F2JP/CQMn+FrH27RAL27cGMiWR1Ox8rz6T76Mx59retwNTR0IDr2dXNGComRLgZeDXvxWJi6fHh5vWh/Xo8zZoXrG/I5jzj9qRvf+7mBuvc5Lae0h+qLkoU09cq498EolNmSHTB0sCFaU8dc3099mCwVl9vqgHr+uamNWnpE1DguwreuVWicxYG44iKjEnoicdcfwsPPblZoouWBaOO7BGYH3XfZJxYL3LaOYEJpKFtT8RbH9yss2urxGonBaYF2TydFNq3033d6nkpNrEuOPXU2eY+jCYXqEx4Wi7x235nJJbm5Ja90ZxLSiWyaLl+DiaTcnJ5/tqzXUI7tqQ6SXdaA5bvQtaRk5m5hRGd2+iJUdMzdhIzk5E+vt4Olq7raP8usTSgRRYu9fWtHjMnVeiJR5N9bDfeafKR+yS6ZKW/W7TGNKxv22y3trgP+hG7jiKLT5HYpCn+Dg4t++yxj5I6ievnLbze1NMKidU1+Ptid3BvvC9MLH0PB2iYKtLFHC2LtSxNBCvTt0pP9JKbk1goHO/cPnu+/W/k6lrYJ6EtG5I+zx/ly1o+kM6AZb8/L1eefrBW6mJ9UisXFkm0rl6krMJfLREaIM3tQfNNMeWTmJkmQ+soVl7lrzrSC5rpU2VPm5Dat5rEp8Sy+7HZ87b56XFsrRsT1q22lnifoRSZaYTsb/NFJf6pI/MU4fCQ1tGheN+qdGyxospu/fNVPZlz0fCgfVveGuhPditmMubfajFP/E3VMkuLucdq7kebodO9cZIy54OGaRKZs8huxULuzl9mQm7TgpWG8/xHNVz9d0YOlzSFoSP3wE1zrR55YjpGmUmuzAy+qVyVzLeXKRxNAAAvhKvozPmemZw+sLvi8MFE94aBVDdlnsx4vQasH2fsvaYQrMxR9hItr5F450KGtAUA+Eu4QKJTZ0hsxhyJlZRRH7kMVz2dEnpSw1V3Rzo2Z54YW60B6+8Zfc9JhCszh5OZJPHtWqrZ7QAAv4lVVkts2iyJ1k9l1Pach6suCe3aFu/akB4btbxYA9aOjL93F+HKHGVmPiczGzkzXgIA/KWwUEPVNIlNncnEzl4IV90ddr+rJCd1PpFfaXmdBqz+rPwNDgOW6Xj4Sy2ns9sBAL5RVGw/JBWbPEViE+rsvlfIIdOhvXW/Pc6aGQcyjcxEz+/ScPW/WQ2KDgLWi3RhOoUR6wEAeS9WXhl/YrhussRqaglWHmA/6XxwX3yk9tGRdG9+s5ZXaMDalPW/a5yA9XqJP1Yb4hAAAOSlomINUxPtYBU104ox9II3DA/FW61a9ic15qMDZmyHr0p8iIahnITHkwSsNyYCFgAA+cEMtVBabocqqZ4QD1el5dSLV3aPhimrrTVezO3AWCxTv2qLltdquLo/p3/vCQKWmUTz10ILFgDAq0IhiZkBp81AuOZpwMoaLVU8DeilUGXGsurqiHdiN3PIDme8Qcn8gs9p+WKuWq9OGrI0YJnBRB/WQvQHAORecUm8dcpMb1VaFg9Wpl+V/pv+VB4yMhxvqerrFau3Kz7VzXBWc86tWt6j4WqnV6qk4JiAVSzxpwhTD1hm3kCLhjAAwHGYVihznTDzpxYViRQWS6yo2P63vdRgZfpOxYpLAzNJe1qYKbIKMtiSZ6Z2M61TQwO6HBQZHLAnlrf7VGnIyhEz/d4HNVz91Wu749g98T4tK5LZkN1Ua8YXmVAbn3KACTMBAMieoUEpuC8xgLmG11hhkT2Prxn/y/63CaummNa/I7dUzTKSmLvU9I868m8zt6l5yi9RrNHR+L/TMR9s+mzXcoOWX6V7Yud0eaqdtXH1WjMBp+ko5mreABOuoguWxB+DBQAAORHascUevDMAtmr5opabNVyNevmNHt2S9SG3ASs6a75E5y7injgAALkUi8XHmPI301/881p+o+Eqmg9v2A5ZifkIX+cqYC1aLtFpsziwAQDIMSs7T+7lgmmp+o2W72qwuivf3vyRlqxrtTgenS06ewEBCwAAjwgd2OO3P2m3xMfqvEnDVWu+/hFHQtY1TleIVdVIdM5CjmgAALxgeCjekpX/zEzQt2j5mZZ7vdqZ3VXIaly9tkGXq5yuEF24lD5YAAB4hN0XK5a3eWS/ljskfkvwTq93ZHcdsrQ8x+mL7ekJqiZwRAMA4JWQlV+3CiNaHkgEqz9oecwPLVYnC1lnOw5Z9dM4mgEA8Air47A9PpaH9Wsx8wfeo+VfWu7TUDUQlP1jQtYCxyFrQh1HNAAAHhHa76lWrINaHtOy4ahls4aqsaDuHxOy5jrbk6H4PFEAACD3zFyBbS3Z+m2m9aktUcwv3XlU2aVlh4apLnbKs0NWlbNXFtLhHQAAjwi17HPb4f21WsxwCCWJ/2/mKzbDN5l+Ur2Jn5nbe6OJn3VraTdFA9QQNZ5cyKp08sIYcxECAOAZlrtbhes1KK2l1rIchB3vzGiE2gIAwAsBq7NNrMF+N6t8h1rzcMjy2MzbAAAE9+K9b5ebl5tbgT+j1nITsnqoBgAA8oQZ4b3N1Uwza5ub1vRTcbkJWQ6bqGLUFgAAub5wm8FH3XV4/y615vWQNTZGbQEAkEsarlyO8H5Pc9Oax6m43IUsbhcCAJAH7HGxhl2NpkArVo5DlnMRnjAEACBnF213Hd4Pa2mi1nIbsnodvzrGE4YAAOSC1d8rVme7m1V+2Ny0ZoSay23Icj6zJP2yAADITchy14plesZ/j1rLfchyPBs2A5ICAJADY6PxaXSc+3Nz05odVFzuQ1a341czICkAANm/WB/Y67ZfNB3ePRKyuF0IAICHWft3uXm5JjK5nVrzRshyfLtQIoQsAACyGrDaWsUaHHCzyrebm9bQv8cjIcv5OFljo9QYAADZvFDv3enm5WYQre9Ta94JWY77ZFncLgQAIGusPjNsQ5ubVX7a3LSmnZrzTsjqcPxqWrIAAMjeRXrvdrer3EiteStkdTkPWbRkAQCQFSPDYrUecLPGXc1NazZScd4KWZ3OQxYtWQAAZOUCbQYfdTd00jeoNe+FLMctWdYoo/MDAJBx0YiE9u92s4YmMvk9Fee9kOW8JWuEkAUAQMYvzgf3irhr2LiRYRu8GbKcP7ZASxYAABlnuRu2wYwScBO15sGQpcnXjPjuaJQzbhcCAJDhgHW4RayBfjerfF+v5b3UnAdDVmLZ4ujVhCwAADJ7Yd69zc3LzWP/dHj3eMg67OjVsZgGLZ4wBAAgE6zOdrF6utys8qvmpjV7qTk/hCxzAIwMU2sAAGTiouyuFcv4GrXm/ZDV4niN4UFqDQCANLN6u8XqOOxmlX80N61ZR815P2Q536u0ZAEAkP4L8h7XU+h8kVrLj5Dl+H6uNUzIAgAgnazBAbEOHXSzymNa/kzN5UfIcj450vAQtQYAQDpDlumLZR4uc+4LzU1rYtRcfoSs/Y4PhBFCFgAAaTM0KKGWfW7WMCOV3kLF5U/I2ufmYAAAAGm6EJtWLHcTQX+5uWnNGDWXPyGrVeIDmo3LImQBAJAew0PxeQqdMw+q/R8Vl0chK3Ff11m/LPN0obvEDQAAjncRNk8UurumfjUxHR7yJWQl7Ha6Eq1ZAACkaGRYQvv3uFnDDAX/TSouP0PWLsdrDQ1QcwAApHIBtvtiRdyscmNz05o+ai4/Q9YOpyvRkgUAQApMK9YBV61Y3Vq+TsXlb8ja6XitQVqyAABI+uJrWrEirlqxvt3ctKaLmgtAyLIG+qk5AACSYcbF2r/bzRrmovtVKi4gIUsGCVkAACR14XU/LtY3m5vWtFFz+R2yzKjvI05WsghZAAC4ZuYodNkXy1xwv0bN5XnI0pRsYvWTjtYy95GZwxAAAHcX3Z1b3c5RaFqxWqm5PA9ZCVvdpHEAAODwutnfJ1brfjer9Gr5MjXnn5C1xfnB0kvtAQDg9IK7c4vbVqyv0hcroCFLBhgPDQAAJ6yeLrEOHXSzCuNi+TBkOb9d2E/IAgDA0cV222a3q3yJcbH8F7KanYcsbhcCADDu9bKtVayuDjertGu5kZrzWcjS1GyOAmdPMZinC8fGqEEAAE4kFpPQ9ifcrvU55ij0YchK2Og4ndOaBQDAiS+yB/e67V6zV8u3qDn/hqxNjkNWXw81CADA8UQiEtqxxe1aH21uWsNAlD4OWY5bsoSQBQDA8S+we3eIjAy7WcU0cvyYmiNk2axeQhYAAM8yPBSfo9CdDydmX4GPQ5Z5ztTRaGlWf4/bgdUAAPC98Pbm+BR0zt2jAet2as7nIUt3spmM0ln81gOIyaIBAHiaPfBoyz63q32QmgtAyEp4xPEWuGUIAMDTF9atm9yu0tTctOY+ai44Iethx4m9t5taBADAXBMP7rNbslwwPeM/QM0Rso5/QPV0UosAAETGJOx+4NGvNzet2UnlBStkrXccskxLFp3fAQBBv6Du2uZ2yIZDWj5LzQUsZGmqNs1TzpK16fzOyO8AgAAzD4HZ42K5YwYepWNz0EJWwkOOD64eJgoHAAT4Yrplk0jU1RBXZkzKm6i54Ias+x1vhZAFAAgoq/WAWB2H3a727uamNRFqj5A1/gHWTed3AEAAmc7uTz7udq3fasC6k8oLdsgyY2WNOApZpk/W6Ci1CQAI1kXUjOzurrP7oJZ3U3MBD1masofFxaCkVncHtQkACAzzdH1o/263q31Gr6+7qb2Ah6wE57cMuwhZAIAAXUC3bHQ7hJGZsu7L1Bwh64h/E7IAADjm4rl/dzJP1r8jcZcIhCzbvxyHrL5ukSgPSgAAfG5oUELuR3a/TQPWn6g8QtZT9IBo0cUWR1uKRnnKEHkhrEf9rOqwnFpfIOfPKJSzphbK8kkFUlsaonIAjH8OMbcJx8ZcxTIt/0nNBU+Bg9fcpWWRk41ZHW0Sm1BHrcJTLC2nTymQS+cUydlTC2RRbYEUnCBP9Y7E5OGWMbl/36jcsX1EDvZFqUAAT59PWvaJ1X7I7WqfZn5CQtaJ3KPlzY4Ovs42ahSeUVJgyTVLimXN8hKZXuWslaqyyJKLZhba5YPnlsm9Gra+8/CQPHCAIUqAwBsZlvCTm92utUnLl6g8QtaJ/NNxwjeTRY/pxaigkJpFTl25oEg+oiFpUlnytwBNC9h50wvtct/+UfnE3QOyo4t+h0BQhbdqXhodcbOKefTwjc1Na/iWFlDjXoH04Nini+3ODqeYWF3t1CpyprrYku89v1K+dmlFSgHrWOdMK5TbX1Et1y0voZKBALIOHxTr0EG3q31Lr6H3U3uErPH8xfGB2MEtQ+TGnJqw/P7l1XLxrMy0pBbqp+Wj55fJVzXAFdJHHgiO0VEJmwmg3dmv5QYqj5DlxN8ch6z2w9Qqsq6xNiy/vLpKplZkPv28cEGR/O/zKwlaQEDYtwlHXA9v9bbmpjU91B4hy4m/a3H0mJU12C/WQD81i6yZURWSH15ZKRNKrKz9zgtmFNotWiGL+gf8zGo9oGW/29XMBNC/o/bgKGTpwWKGtX3Q8UHp/vFWICnFYUu+fXllWvtfOXX5vCJ5y2ml7ATAr4aH4mNiuWOmP7meyoNR4OK1f9VytuOQNWMOtYuM+8A5pfatQqfMNGPrtxySBx5vkR37umVweExCIUsmTyiTy86ZJWcuqXf1+//zzFJ7mIdHW8fYGYDPhDc/Gn9i3p13JgbyBlyFrD9r+aijkGWeMIxE9AgNU8PImCV1YXnNMmdP+0U1XTXd+aR8/7ebZN+hvmcfs5bISy6e7/o9mNuFn76wXF7c1C0Rxi0FfCO0d2cyYz/+TgPWT6k9JBOyzGOophl04vhXtKh9cMbq6qlhZMwHzylz1Ceqpb1f3vXVu+WxrSd+KOO8FVNlydyJSb0P05J21cJi+U0z874CfmD19yYzN6G5Pr6F2sMzwrrTF2o6N6Mw3uH4ID1MaykyZ0V9gZw7ffyhGnYd7JFrPvLHkwYsY9XShpTez1tOLaETPOAHsZiEzG3CqOum6bdzmxBJh6yEPzjecFtrvAMMkAFmupzxdPYOy+s//Vdp7RgY97VV5UUpvR8zRteqqcx0AOT9RXFHc3z2EneaNGD9nNpDqiHrT1qczSsyOiJWVwc1jLQzTxRePnf8UPTpHzwgBw47G05kb2tvyu/rqoVF7Bwgj5lxHkO7t7tdzXTc4mlCpB6yEkM5/MvxAcstQ2TAyvoCqSg6+b25R7celj/eu8vxNv/6wB6JRFJreTVjZwHIU2by5yceTWbNN+m1kVG4kXrISvi94423EbKQfmdMGf95jbW3b3a1zT0tvbL2D5tTel/15SF7YFQAeSYWk/CmR5IZ1f37GrB+SwUinSGryfErhwbF6umilpFWC8cZF2t4NCL/WLfP9Xa/8pNH7GEejscMAXH3+vFHfV4wkWFLgLy7EO56Mj70kDtbtbyb2kNaQ5am9j26eMTp661DB6hlpNV4rUVP7Oywg5ZbJkh99Lv3yXUf/7Pcds8O2b6v2y53/HuXXPuxP8u7vvLPcZ/lmFFFyALyiRluyIQsl8zow6/U6yFzyOGkCpJc7xYtpzlKca0HJDp/CTWNtKkpPnnISrUT+0ObW+1yPIe7BuzR4U+kuphxHIC8YfphPb4+mSfhP6oB6xEqEONmoCTXu9XxK4eHeMoQaVU4zlHbNzCasd/d23/ybVcUErKAvGD6YZnxsNz3w7pLyxepQGQsZGmCb9bFJqevT2IGc+CExsYZI7CspCBjv3u8bfeNMjYckBcXv51bxepw/VBgp5Zr9RrIJFrIXMhK+KXjX3LoIAOTIm26hk9+fps2qSIjvzccsqSupvTkIWuE4xzwOqutNZl+WMbrNWDtowaRjZDlfHRbMzBp+yFqG2lxoPfkIWvJ3FopCKd/KIXG2ROlsGCc/mA9fMEFPB2wBgfitwnd+wrDNSBrIUsPNjMs7gOOf9HBvdQ20mJb58mfHDS39M49ZUraf+9zV80Y9zXbOyPsIMCrIhEJbXxIZMx1v837tXyYCkTWQlbCzxx/ezBzGY6OUONI2QMHxsZ9zasuX5TW32lasF56yfyTvqZtMCo7uwhZgFeZEd2tPtdPH5sBtF7R3LRmlBpEtkOW6Zfl7P6Imdm8hQ7wSN36ljEZGjt536cLT5suZy6pT9vvvO75i086dINx774xoUcW4NGLnRlw1PQPdu/axPiQQHZDlh54ZjChO52+3uKWIdJgUAPW33aO/6Xyv68/VyrLU5+0ecHMGnnHNSvHfd1tW4fZOYAH2R3dd2xJZtUv6HXuj9QgchKyEn7o+EDv6xGrt5taR8p+sXn8QDOzvlL+530XSUlR8qOwN9SWyXc/9FwpLjz5Ng72ReWefdxNADwXsPp74wOOune3lhuoQeQ6ZJmBSR1PUGjt302tI2UPHBiVx1rH75t11rIGufmTl8mUunLXv2P5/Dr5xWefL1Mnjb/u99YPSYQHCwFvGRmW0GMPiUTG3K5phml4eXPTGjpZIiUpT7TWtvnWsbolV8/Uf57pKGQN9El0xhyNdyFqHynZ0RWR1Y3F476ufmKZvOTi+TIyFpXmnR0ahk7ec6qmslje8YqV8um3OLvduLs7Ih+5q18idMgCvCMalfBjD9otWS6ZZvLLNWBtpRKR85BlaMgyg2C9ydGLzaCkxSUSq6qh9pGSA31RmV4VksV144/wXlwUlvNXTpVrnrdIpk+utP9/RFORCVwVpYUyo75SzlsxVd744mXyyTefY3eaD4WcTZHzrr/2y65umrEAT13czJOEyY3P+AYNWHdQg0iHtE201rh67QZdLHeUs8orJXLWhdQ+UlZeaMnvXlYls6rDOfn9Nz02JJ+/d4AdAXiI6eSe5IjuN2rAehc1iLQdi2nc1vccJ7v+XrG62ql9pKx/NCZv/VNfTqazuXffqHz5fgIW4KmL2sG9yQasu7S8jxqEV0PWzVr6HP/ifbuofaTFkx0ReeMdvTKYxcmZNxwak+s13I1xlxDwDDPhc6h5QzKrmieyXtbctGaMWoQnQ5YenD26+KnjD8PhFrGGaAVAeqw7OCav+X2vdAxmPmj9a++o/bv6R+npDngmYPX1SHjTw/F+v+6YC9GL9RrWRi3CsyEr4duOX6kfBGvPTvYA0sa0Ll3V1C0Pt2Tmy6g5dX/74UF5wx+y22oGYJyAZSZ9fvQBkTHXn33TFv1KDViPUovIhLT2Fm7bfGtr3ZKrL9V/znT0wejvk+j02QzngLQxfbN+u3VYuodjcvqUAikKp+fZjub2iLztT3267RGmzgG8ZHREwuvvE2toMJm136MBay2ViLwIWYaGrCFdvNRZ04B+iSgslFj1RPYE0sbcLXi0dUx+uXnYHrtqwcQCKSlILmxt0XD1mX8PyKf/NWCP6g7AQyJjGrDuT2YsLOPbGrA+RiUik6x0b7Bx9VozeuMuLVMcrVBcImPnPlfficXeQEaYWXUumV0kz51dKOdMK5T68hO3nJpxSje3jcl9+8bk9m3D+m8GfAY86chgo51JdaUy8xG+kBHdkXchKxG0PqKLzzj+rDSeItGpM9kbyIqaEkvm1oSltjRkj7M1psmqbzQmLX1R2dkVlWGGbge8LRaT8MZ19sTPSXhMywUasHqpSORryJqgi71aHE0YFystl8jZF9GaBQAYV3jzerFa9iez6kEtZ2nA2kstIhsy0uNcD+BOXdzkOOkN9ovVup+9AQA4+UVry8ZkA5YZZuhKAhbyPmQlfF2L4/vdod3b2RsAgBNfJ7ZuktD+3cmsOqrlpRqwHqEW4YuQpQezGQTrN05fb0+103qAPQIAePbFantzsjOFmE6Wr9Fr0t+oRfgmZCV8ydWbMfNNxeh0DAA4JmDt3pbs6u/WgPUrahG+C1l6YD+kiz87fb3dmtVC3ywAQFoC1mf0OnQjtQhfhqyET7h5cXjnFlqzAACpBqxvasD6L2oRvg5ZepDfLy5as2RoMNmOjQAAApZxs5Z3UovwfchK+ISrN2X6ZkUYiBcAAnlhevLxVALWb7W8Tr/gc0sEwQhZidasuxyvMDIsoT0M6QAAgRKL2eNghfbuTHYLt2m5hulyEKiQleBqIk47ZA0PsYcAICABK/zEo6l0F/mHlpdpwBqhMuEV4Wz9orbNt+6pW3L1GfrPhU4/cNbosMQmTWEv5TFrcEC/le6wv5mGWvaLNdAnUlIqUlhE5QCIM5M9b3pYrEMHUwlYZjR3vpnDUwqy/Ps+rOUF4nDORDOcgzV9jsSqathT+WZ0REI7tkrowO5nPC1qtR8S2b1NovMaJTpzHvUEBN3YmIQ3PiRWZ3uqAWuAyoTXhLP5y9o233qobsnVs/WfK52uY/X1SmzqTPZUHn0jNa1W4U3rxOruOPF+7WgTKS6RWGU1dQYE+MtY+NH79VzRScCCL4Vy8Ds/rsVxk67V0ymhg8znmQ+swy0SfvCfEtq22f52Ou7Bt72Zp0iBoJ4vBgckvO7fYvV2E7DgW+Fs/8K2zbd21y25eqL+8xzHH0b9lhM1rVnhMHvMiyfLjjYJP/6I3ffKGh11vmI0IrEaPRTKyqlEIEjnDA1W4fX3izU8mOwm7tTyQgIWvC6Uo9/731qc34A3/Xu2P8He8tqJsqdTT5T3xZv7e7qS/DbbT0UCQTpvtB+S8CP32kP1JMkM0/B8AhYIWSegHw5zA97VdAehA3vE6upgj3nhJNnZbn8LtZv6k++saosVFFKhQFAuOHoeD294KJVuAr/UspphGkDIGt/3tTzq6s1u2ci8hjn9BnpYwg/fa7deWZ1t6dmouV0IwP8Xm+1PSKh5Qyrn8Ju0vJqAhby6bubylzeuXnuBLu52s050zkK7IEvM04Kt+8Xas0Os/t60bjpWP1UiS0+jjgFfn0MiEn58vf1gTAq+puW9TJUDQpb7oPVzXVzj/B1bEjnzAolVVLH3MslMbbR/d3z05eT7Tpw4YOn+i5x2rkhBAXUN+NXwkH17MIUnCI2Pa7j6FJWJfOSFK9z7tbxQi7NHzMzcVpvXS+SMC0RCIfZgulN3Z3u8/9vhg3YrVvp/QUjOOGuB7KhdIIcGqW/At+eSni4Jb1yXyvRo5gT0Zg1YP6A2ka9yPiZC2+Zbe+qWXG0eMbvc8Yd3JH5LPjahjj2YDubpTQ1WoSceiw/DYG4LZqDv27S5U+WmGy6Rt1wxT+ZNLJDbnqRrBeDLgNWyLx6wxkaT3YT5CmYmev4ZtYl85pV7Nd/U8motZzpdIbR7m8QmNTBieNLfEaNitbVKSE+G9lQ3GXygoGxCtXz4tWfI6nOnPfWzi2YWyksai+U3zcPsC8AvzJ0G08F9z45UtmLuLZoxsO6hQpH3Xzi88kYaV689RRcPuwl+sdJyiay6QCRMvx6nJ0DzVKCZhDV06ICjUdlTUVheJtdedYq898ULJGQ9+1DrHYnJFb/oltb+KPsGyHejo/agxFbH4VS2slvLFRqwGBgRhKwMBK3P6eJDrnJDw3SJLFnJnjwR02LV2a7B6oCEzNM9yTffOxYuKZarL18mH3vFYiksOHm/uX/tHZXX3d4rPDIE5PGFxIzgbm4PDqXU0dJ8yTbT5LRQo/ALrzUBfVLLai3zHX+4ze2uiZM0bE1jbx4xPCSh9kP2bUB7IubIWFZ+baioSC69qFE+c+0yqShxdmidP6NQXrGkWH6xmduGQD6y+3Nu3ZTqgzJmFPdrGMUdvvsC4rU31Lh67bm6MPfinT86GC6wbxua24eBpCHK6urU0maHqhQfl3bNtFxdeekS+fg1i6W02H1uHxyLyYtv6ZEdXUwWDeSNaERCWzZJ6ODeVLd0o8THwOIEAEJWloLWZ3XxYTfrmA7wkdPPC8awDqMj9uPRZuJs+1ZgT2dORsI3fa5ectkSueFljePeFhxPc3tEVv+6R4Yj3DgEPH/h6O+V0KZHUh2g2PRdeLuGq+9RoyBkZTdkmQntHtKywlXQmjJdIot91j/LtFL19Wrpjk/CbILVQG4nVa6ur5U1Vy6WNz1vjoRD6TuEfrppWD5xDxNGA56+aBzcJ+GtG1OZf9AwE9G+VAPWXdQoCFm5CVrLdLFOS7GroFU/VaINM0RKSiWmRcLh/NgTesKyBjVgDPTpt8O++DfEvp6cB6qnjxRLZs6fJu9/+TK5dOXkjP2at/2pT/6yk/GzAC+eo8JbNtr9YFNknhw0QzRsp1JByMpt0HqvLr6c0kYKiyRWpDmtuERL8VP/fupnBfrfCwvt14mVoeowt/LMLT4tplO6ZZ7A0WINJ5aDA6k+lZMxhWWlcv7Z8+SDL22UWZPLMv77eoZj8sJfdcuBPoZ1ADxzoejpkpCZf3Aw5S99t2q5TgNWL7UKQlbuQ5Z5f3eIi9HgU1JQoIGrKB64TPAKF0rMtISZ+fXMWFzHC2EmQJmn93RhRUbjY0+ZZnTzs9HReLAazbOWGf07G2Y1yJorFsp1F8887hhXmbTx8Ji88re99M8Ccs0MLrpnu4R2bElHv8+PaflvJnkGIctbQcvMnfOoFsZoyLCyidVy8dlz5V0vnCfT68py+l5+s2VYPvh3+mcBOTM0KOHNj4rV1Z7qlkyr1Ws0XP2eSgUhy5tB63xd3CUemGvRb8ztwBWnzJS3v3CBnLVwoqfe26f/NSA3bxxiJwFZZoZlCD35eDpmhdgo8Q7uT1KrIGR5O2iZkeA/xy5LXVFFuZyydLpce+kc+Y8Vk8Xy6FEQiYpcd1uPPHhgjJ0GZMPIsISbN9jzmqbBWi1v1YA1SMWCkOX9kGXe6x+0XMFuc6+itkZOXTZNXn3RLLlwWV3evO+OwZi85Nfdsr+XjvBARi8Ghw7aTw+moQ+pmb7hHRquvk+tgpCVRzRo1ejiAS0L2XUnFyoslKkzJ8slZ0yX6y6aIdNy3McqFWag0lfe2iN9I/SXBdLOtF6ZoRkOp2XKwG1aXqYB61EqFsizkJUIWo26uF9LNbvvqB0ZDsvk6ZPk1MX18qJV0+TCZbVZfyowk8xE0m+8o1fGaNAC0vdlzO57tTldE8f/VMtbNGD1UbNAnoasRNB6vsQnFA0FdceZKW2mTq+VUxdNluetnCzPWVIn4bDl67/5183D8qF/8MQhkPKJf2hAQs0bxeo4nI7NmQ/l2zRcraVmAR+ErETQer8uvhiEnVRUWSGT66tlwcyJsmphrVx22iSZMqE0kAfsjQ8NyjfX0Y8WSIo97tUOCe3amuq0OEes1/JKDVhbqFzARyErEbR+pIs1vtgToZCUVlXIhImVMnNKlSyYXi2nz6uW8xfXSnlJAUfqUcz4WWYcLQAuTvbdnRIyTw72p2WwdXPj/ktaPqoBa5TaBY4v36/eb9TSoOUy92ccS0qqKiUWGZPRoWGJjkUy9iZDxcVSVFwkJeXFUlFeIhOqS2RaXbnMbqiQhVMrZMWsKpkysVQsiwPSic9cVC6dQ1H5x27O7cC4RkcktL1ZQgf2pGuLZkNmapx/UrnAOFEj3/+AxtVrK3RhPuynuV23pKxYvvOpF8nZs0olEo1J/+Co9A6MyOHuYWnpHpH2nhEZ058PjYn+txFdxuyZJQZHIlJa9PS4qJVlhVJYEJLK0rBMKC+UCfr/66qKpKFGQ5X+O0R6SjuzL17/h17G0AJOxNwaPLA7PiXOaNq+kPxE4sMzdFHBQABCViJo1eviXi1zXQet0iL56kevlIsXVHA05BkzpMNrb++Vx1oJWsAzTuzdHRLaskmsvp50bdKMTmqeHLyV2gUCFrISQWtBImi5HmmzsKhAPvX+K+TFKydwRORh0Lrm1h7Z0h6hMgAz3+D2ZrFa96dzq00SH7m9jQoGAhqyEkFrucRvHbpOS+aO3vve/h/yuudM4ajIM51DMbn29wQtBFhkTEK7t9tPDko0bZ8DM76DGZrhFioYSI6vJlxu23zrobolV9+l/3y5lmK369/74A7pCJXJBYtr6YSeR0oLLLliXrHcvXdU2gcZFR7BYjq0hzeuE6v9kN0PK01u1vIiDVjrqGEgeb6MEo2r156li79oqUpm/edcuFS+9ubTpKyQpJVPTIvWdb/vsafhAXx/8m5rtZ8aTNOQDEeYJwffpOHqz9QwQMg6WdC6RBe3a0lq1M4FC6fKtz9wkUyvZoyqfEJnePj+pG06tZtw1dWRzs2abybf0PIxpsUBCFlOg9ZzJD79TlItWtU1ZfL1G66Qs2eXc6TkETO8w5vu6JP79jOOFnx0su7vjYerttZ0b/pBLW9mUmcg/cJ+/uPaNt+6u27J1X/Tf75ES5nb9YeHRuX2O5ulYNIkOX12JUdLnigIWXLlgmLZ0RWRbZ3cOkS+h6s+CT+5SUJbHxdrIK2NTN1a3ivxJwcPUtNABj6/QfgjG1evXaaLP2mZluw2LrxoqXzhDadKdXGIoyZPmC7An/33gPxowxCVgfw7OQ/0S2jnFrEOHUxnh/Yj/k/LhzVctVLTACErHUFrfiJozUt2Gw1TJsiX3n+pnDGjlCMnj/zfY0PyuXsHhOcOkRcn5f4+Ce3eFh/rKv3hyjwt+HYNVw9Q0wAhK91By8xzaPponZHsNsIhS974/54jb79sloR5+DBv/HH7iLz3b30yGqUu4NGTcV+PhHY+KVZbSybClRnz6gYtN2nA4lMAELIyFrRM3ywz/9bVqWxn6fJZ8rnrz5UFdYUcRXli3cExeeufeqVriDYteOgkbJ4W3KXhqv1wJjZv7pV/XcvnNFz1UNsAISsbQct0+P+ilveksp2iogK5/vUXyhsunkarVp7Y3xuVt/yxl7G0kPuT7+GDEtq9Q6yezkz9il9IvN/VLmobIGTlImy9VeJjw6Q0GFZj4zT59NvOl2UNxRxReWBwLCYf+Hu//Gn7CJWB7IpGJXRwr1h7tos1OJCp32LmcH2vhqv7qXCAkJXroGXG0vqVlvpUthMOh+Sal58t73zBXKniCcS88K2HB+XGBwfpEI/MGx6S0P5dWvaIjGYs3D+u5SMarn5PhQOELC8FLTMrtJlp/txUt1U7sVLe9cbnyEvPqKVy88Cdu0bsVq2eYaIWMnCC7eqQ0L5d9q3BDHRmP2K3lo9r+TGd2gFClleDVpEuvqzlHenY3pKlM+T9rz1Lzp5dRuV6nOmn9c6/9MmGQ0zFgzSIRCR06IBYJlz1dmfyN7Vo+byW72i44t43QMjKi7D1Cl38r5bqdGzvwguXyHuvOUUW1BVRuR42pt//v3DfgKzdMMTtQyR3Mu3vFWv/bgm17NcDKqNTOplw9QVzntJwNUjNA4SsfAtasyQ+zMP56dheyLLk8stXyNtfvFjmTGTIBy/7x+5Ref+dfdLN7UM4EY3aI7KHDuxO94TNx9Ou5UtavkG4AghZ+R60zDAPH9LyCUnx6cMjwgUheeELTpM3XLFA5tUStrzqYF9U3qdB68ED3D7ECU6cPV1iHdwrITMq+1jGjxPTcvUVLd/VcNVH7QOELD+FrVW6WGv+ma5tmpatSy9dLm++arEsqWfYBy8y7Vg3bxiSL90/KMMRWrWgRoYl1LJPw9U++9ZgFuyQeMvV/2m4GmYHAIQsvwYtk4T+S+ItWwXp3PbZ5yyU175omVw4v4KK9qCdXRF53539dIoPqkgkPmhoy36xOtsy+YTg0TZr+ayWX2q44sADCFmBCVvLdXGTljPTve258xrkNS8+Va46vU7KCtktnrrO6nX1e+sH5RsPDdod5OFzGqSsjsPxVqu2VjtoZcnftXxVyx0arrLefKrnt0pdPE/LIi2TJd4HbJuWP+v76eDAAAhZ2TgRmb5a/ynxvlqV6d5+RUWJXHXlqXLNRbNlPv22PGVrR0Q++s9+eaSFxgVfBqvOtngndjOm1ehotn6zOZh+qeUrGmTW5+icNkniLfVv0XK8x6BNyrxZy0f1Pe7nYAEIWdk4MZkBTE1/iVdn6necsnKOXP28xfKCFbVSWcSu8opfbh6WL90/wBOIBKtUmJahH2j5Hw0u+3J4HjOt8maE+AYtrVq+p+VOLWa26lotZkaMN2mZqaVLy0v0/f6DgwcgZGXrJHWexJv4V2Xqd5SUFMlzL10uL71wjj24KTst9zoGY/LZe/vl91tHGFcrn0TGxGo/rKGqRZeHMj2e1fE8aoKVlp/nehgGPXeZh3ke0FJl3o8JU8d7elFfV6qLG7W8UYt5zxfo6x7mYAIIWdk6WZl6NIOYms6qczL5u6ZMnSgvuny5/MdpU2RpPQOc5tp9+0fl0/8akCc7IlSGV5l5A9taxWrTYNXZbo9tlWXmluCvtXxTw8m/PHTOMu/FTCX2Gy2rE/82XxbNQMwFiUBlQqHpkzWm65hbhtdq2aDlVKbwAQhZ2T5xmdTzei0fk3jze0bNmDVZLrtkiVx+egOBK4dMx/hbnhiWrz84KO2DXHdyztwG7O60W6rs0teTq3eyU+K3BH+ogaTFY+eqK3Rxh5Z+LbP1/bXpz27Vf1+VCFem0iYnrhF/0v9+hf73Gv33rkQIe5n+rImDDSBk5eIEZprXr9fyvmyEracC18WL5TINXMsaGHsrF/pHY/KdhwflRxuGGVsr20xrVcfheKjqaMvFbcAjzC++NRGu/ubV1h49R5mx/66T+ACnb0387EjIulp/dqv+/7P03/cnVjFBbLf+zNw2fKeWW/T/v5wDDzi5Aqog/RJ9Lb6iJ6Rv6/LNWj6gZUomf+fe3YfkBz8yRb9+1tfIeectkotOnSLnza2UcjrNZ0V5oSXvO7tMXrm0RL7ywID8YduIRMlamTE2Fu+0boqGKmsg5wOhP65FP31ys37+D+VBDZ6eWP7zJK8xHeFNSDTns86jXm9C1koOQmB8XH2z863R3Mt7lZb3aFme1RRdWCCnnj5XLlo1Wy5YXCsL6hgWIlu2tEfkxocG5W876RyfllBlbgF2tceDVW93tgYGPRnzhKDpMP4jDVbr8uyc1Cbxpwcv1vd+V+JnR1qyTGA0twtP1XJQyxv0NX9PvOZsXdynpVt/VsOBCYxzDaYKMk9PRiOJb7k/0pPUpbp8t5bnZ+XaNDomD92/1S5mvImGhgly5plzZdXSBlk1r1pm1nAIZMqi2rB8+/IKeaItIv+zjrDlyuiohqp2e9Jl01nd7lcV80Ttmc/yn7T8WMtteTzdTUciZB1vrD8zVIPpq2XGBDRDN0w46r9VJZbMoQgQsjwZuP6mi78lHp82Ycs8rVOard/f0tIpt932sJb4/2+YMkHOWjVPzlo2RVbNrZRpVRwS6ba4jrA1HjMXoGmpEtNaZcqAp67hZnfdJfFWq1/7ZPTz7VoWSHz2ituO+W//ZVq39Bz1//TfP9TyBYk/HWmcmlhu5agFHJzbqILcSjyxY4KWeSpxRa7fT319jaxYMVOWL2qQlXOqZemUEikt4DBJ69WtMyI/fGxIbt06LCNBHPlheEisni77lp+97Om0bwd6kBlD6ldafqGh44DPzjvmwZxvSXwS6kWJIRqO3C68OBGyTAuWua0Y0jJLy14t6xPnqffra77MpxkgZOXTic98qzQD/r1SiydmjA4XhGRh4ww5ZclUWTG/VpbPrJQ5EwslzJGTsrbBqPx447D87PEh6RryaduWCVQmTB0JVKYv1Yhn77CZnWCepjOtNubpuT0+PteY24SmNWvSkcCkP/up/vsFWq48Mp6X/sy0cl0g8anETDO3eWpSd6LM09e08ykGCFn5eAIs18U1Wl6r5Xyvvb/i4kKZv2iaLJpfL4vnTJTGaRXSWF8iFTzFmJTBsZj8pnlEfr55yO4sn5eiEbH6++J9p7RYdukVGR3x/DvXck8iWP3aby1W45xnzBAOZigHc9C9Vv/2n5zktVea4KmlRMs79bX/wycXIGT54URoOp6+IhG6TvPye50+vVYWLZoqc2dOlDlTq2Tu5FKZW1fMvIsurG8dk188PmwP/+DJsbbGRsUa6Lf7UIkJVWY5oMuhQa90THdC37T8WcvvtNzhkz5WyZ5fPi3xyaElETTNFGH3HxnfS/+7Garh7Vpel7hefEf/2/V8UgFClh9PiIsSYcvcTlyUL++7bnK1zJlTb4evudOqZebkcpk+sVimVxdICf29jstMPn3rlmH55RPD2Z+yZ3RErMEBkcH+eKAy/7aX/fnQMnUiZvR1M8K5uf11Vx4/FZiJ88prJD7Z/ZGBk4e0mLG+zNOH5YmfmXGybtB6+w41BhCygnBiPEUXV2t5kXi8hetkauuqZdqMWpk+tUam11fJ9EnlMq22RBqqi2RyRQG3INXjh8fktidH5PZtI9Lan+IA4tGoWMNDdl8pu7+UaYHSYg0NPL2M+KI3vgkKZuBMM9zCHzUcbOGscdLzSZkuTNh6ofm/Eu+rZVr4ntTyB4kPstpFTQGErCCeIKcnTo4mcF2ixTcTGZaUFUvDlIkyaVKlTKqtkIa6CplcUyqTakpkQkWhTCwvkAllYZlQEpbCsL/3s7kZ9+CBUbldA9cft4/YrV3x/xCLtz6ZVibTqXxE/20v48X+twlUJljlb0uUE2bi4ju1/FXirVWDnB0AELKQzsBlnkq8TOJPCZmBT2cE5W8vKy+W2tpKqamp0FImNVWlUl5WJBV2KZTy0kKpKCmQitICqTTL4pCUFYWkqCBk37Ys0lKmJRzK3nvuG4nJSCQmg6Mx6RuO6DIqQ1r6hvTf+v/7hkald2BUevp12T8svX3x0t7RJ5u3t8WDVWQsqIf7rkSoMmPP3amh6jBnAACELGQzdC3UxX8kAtfFWqqpFQeBTYNZuEBDWVmBWAVPNwyWalArdNpkFonKyGhEhkYi+kGLyuDAsIyOxWRsZEQGh0apZPfMrau7jxQNVbuoEgCELHglcJl0cIaW52m5SIuZh6yMmoEHmY5h5vbfvUeFqhaqBQAhC/kSuszggmaajHO1nCfxQQcbqBnkgHma7b5EMSOtP6Shqp9qAUDIgp+C19xE4DLBy7R6macYi6gZpJF5Sm2dlocTZZ0Gqp1UCwBCFoIWugp1sVzL6UcVghecMvPdmdt+G7U8lghV2zRUMUc2AEIWcJLgZcLW0kRZJgF6khHPYkZRf/yoQGWWGxhbCQAhC0hP+KrSxZJEORLAFibCF8da/jMjoe7S0qxlq5YtibJVw9R+qgcACFnIfvgq1sUcLQu0zNcyN/FvU2ZpCVNLntGdCFJHys5E2Sbx23wjVBEAELKQHwHMPOFoWrqmJ8rMRJl+VJlMTaVFnxbT4nRAy0Et+xLLPUfCFLf3AICQhWAFsZJE2JqUCFz1iX83JJZH/9tMahsKSNWYod7btbRpOZwo7YnSmli2JILVfg1QfRxNAEDIAlIJZZUSH9m+5qhlzTE/K0ksTSf+cokPymqemDT9ygoSS3Obs/SYzRcn1nXCTFI8fNT/N0/UmdtxZqBN01HcDPven3idKQNazO24nsTreo5Tjvy8Q0NTD3sbALzr/wswAGEHYF9A2yCEAAAAAElFTkSuQmCC;" vertex="1" parent="1">
                    <mxGeometry x="225.89" y="401.24" width="39.73" height="28.49" as="geometry"/>
                </mxCell>
                <mxCell id="42" value="&lt;font color=&quot;#000000&quot; style=&quot;font-size: 14px;&quot;&gt;Nginx&lt;/font&gt;" style="text;html=1;strokeColor=none;fillColor=none;align=center;verticalAlign=middle;whiteSpace=wrap;rounded=0;fontSize=14;" vertex="1" parent="1">
                    <mxGeometry x="173.62" y="315" width="56.38" height="30" as="geometry"/>
                </mxCell>
                <mxCell id="43" value="&lt;font color=&quot;#000000&quot;&gt;Docker&lt;/font&gt;" style="text;html=1;strokeColor=none;fillColor=none;align=center;verticalAlign=middle;whiteSpace=wrap;rounded=0;" vertex="1" parent="1">
                    <mxGeometry x="220" y="430" width="45.62" height="20" as="geometry"/>
                </mxCell>
                <mxCell id="44" value="&lt;font color=&quot;#000000&quot;&gt;Docker&lt;/font&gt;" style="text;html=1;strokeColor=none;fillColor=none;align=center;verticalAlign=middle;whiteSpace=wrap;rounded=0;" vertex="1" parent="1">
                    <mxGeometry x="365.88" y="429.73" width="45.62" height="20" as="geometry"/>
                </mxCell>
                <mxCell id="45" value="" style="edgeStyle=none;html=1;exitX=0.5;exitY=1;exitDx=0;exitDy=0;endArrow=none;" edge="1" parent="1" source="4" target="44">
                    <mxGeometry relative="1" as="geometry">
                        <mxPoint x="391.635" y="430" as="sourcePoint"/>
                        <mxPoint x="460" y="465.51018641426685" as="targetPoint"/>
                    </mxGeometry>
                </mxCell>
                <mxCell id="46" value="&lt;font color=&quot;#000000&quot; style=&quot;font-size: 14px&quot;&gt;Rails&lt;/font&gt;" style="text;html=1;strokeColor=none;fillColor=none;align=center;verticalAlign=middle;whiteSpace=wrap;rounded=0;fontSize=14;" vertex="1" parent="1">
                    <mxGeometry x="319.5" y="315" width="56.38" height="30" as="geometry"/>
                </mxCell>
                <mxCell id="47" value="" style="endArrow=classic;html=1;fillColor=#000000;strokeColor=#000000;" edge="1" parent="1" source="26" target="39">
                    <mxGeometry width="50" height="50" relative="1" as="geometry">
                        <mxPoint x="275.62" y="392.5" as="sourcePoint"/>
                        <mxPoint x="329.5" y="392.5" as="targetPoint"/>
                    </mxGeometry>
                </mxCell>
                <mxCell id="49" value="&lt;font color=&quot;#000000&quot;&gt;UIser&lt;/font&gt;" style="text;html=1;strokeColor=none;fillColor=none;align=center;verticalAlign=middle;whiteSpace=wrap;rounded=0;" vertex="1" parent="1">
                    <mxGeometry x="169.62" y="37" width="100" height="30" as="geometry"/>
                </mxCell>
                <mxCell id="50" value="&lt;font color=&quot;#000000&quot;&gt;Developer&lt;/font&gt;" style="text;html=1;strokeColor=none;fillColor=none;align=center;verticalAlign=middle;whiteSpace=wrap;rounded=0;" vertex="1" parent="1">
                    <mxGeometry x="560" y="50" width="100" height="30" as="geometry"/>
                </mxCell>
                <mxCell id="51" value="" style="endArrow=classic;html=1;fillColor=#000000;strokeColor=#000000;" edge="1" parent="1" source="3" target="23">
                    <mxGeometry width="50" height="50" relative="1" as="geometry">
                        <mxPoint x="419.40999999999985" y="128" as="sourcePoint"/>
                        <mxPoint x="419.40999999999997" y="315" as="targetPoint"/>
                    </mxGeometry>
                </mxCell>
                <mxCell id="53" value="" style="endArrow=classic;html=1;fillColor=#000000;strokeColor=#000000;exitX=0;exitY=0.5;exitDx=0;exitDy=0;exitPerimeter=0;entryX=1;entryY=0.5;entryDx=0;entryDy=0;" edge="1" parent="1" source="28" target="40">
                    <mxGeometry width="50" height="50" relative="1" as="geometry">
                        <mxPoint x="470.12396694214874" y="125" as="sourcePoint"/>
                        <mxPoint x="375.33057851239664" y="280" as="targetPoint"/>
                    </mxGeometry>
                </mxCell>
                <mxCell id="57" value="" style="endArrow=none;html=1;fontSize=12;strokeColor=#000000;entryX=0;entryY=0.5;entryDx=0;entryDy=0;entryPerimeter=0;" edge="1" parent="1" target="32">
                    <mxGeometry width="50" height="50" relative="1" as="geometry">
                        <mxPoint x="530" y="350" as="sourcePoint"/>
                        <mxPoint x="505" y="401.51" as="targetPoint"/>
                    </mxGeometry>
                </mxCell>
            </root>
        </mxGraphModel>
    </diagram>
</mxfile>